<svg width="38" height="39" viewBox="0 0 38 39" fill="none" xmlns="http://www.w3.org/2000/svg">
<g id="Ask the expert" clip-path="url(#clip0_507_8599)">
<g id="Group">
<g id="Group_2">
<g id="Group_3">
<g id="Group_4">
<g id="Group_5">
<g id="Group_6">
<path id="Vector" d="M37.9306 9.44746C37.9306 5.10311 34.3769 1.58877 30.0178 1.65297C25.8205 1.71474 22.3992 5.13876 22.3406 9.33609C22.2882 13.0931 24.894 16.2506 28.3975 17.0483C28.7111 17.1196 28.9318 17.4012 28.9318 17.7229V19.2255C28.9318 19.4212 29.1776 19.5086 29.3011 19.3568L30.8108 17.5017C30.9681 17.3086 31.1889 17.1758 31.4345 17.1345C35.1213 16.5158 37.9306 13.3099 37.9306 9.44746Z" fill="#00F2A6"/>
</g>
<g id="Group_7">
<path id="Vector_2" d="M33.3928 2.36462C36.1039 5.38578 36.0351 10.0606 33.1839 12.9971C30.8126 15.4391 27.246 15.9914 24.334 14.6539C25.391 15.8306 26.7997 16.6849 28.3958 17.0483C28.7094 17.1197 28.9301 17.4013 28.9301 17.7229V19.2255C28.9301 19.4213 29.1759 19.5086 29.2995 19.3568L30.8092 17.5018C30.9664 17.3086 31.1872 17.1758 31.4329 17.1346C35.1196 16.516 37.9289 13.3101 37.9289 9.44759C37.929 6.30582 36.0703 3.59868 33.3928 2.36462Z" fill="#05E39C"/>
</g>
</g>
<g id="Group_8">
<g id="Group_9">
<g id="Group_10">
<path id="Vector_3" d="M6.73438 18.9994V19.7495C6.73438 20.6596 7.47217 21.3974 8.38223 21.3974C9.29229 21.3974 10.0301 20.6596 10.0301 19.7495V18.9994H6.73438Z" fill="#7A6D79"/>
</g>
<g id="Group_11">
<path id="Vector_4" d="M8.3445 18.9993V19.7494C8.3445 20.3516 8.02131 20.8781 7.53906 21.1656C7.78558 21.3126 8.07362 21.3972 8.38155 21.3972C9.29161 21.3972 10.0294 20.6594 10.0294 19.7494V18.9993H8.3445Z" fill="#685E68"/>
</g>
<g id="Group_12">
<path id="Vector_5" d="M8.19949 5.47992C5.81884 5.57119 3.87539 7.50276 3.77025 9.88282C3.71632 11.1037 4.13724 12.2251 4.86358 13.079C5.47768 13.8009 5.95229 14.628 6.29676 15.5095H10.4688C10.8291 14.608 11.3331 13.7694 11.9515 13.0157C12.6045 12.2198 12.9966 11.2018 12.9966 10.0919C12.9966 7.48258 10.8313 5.37904 8.19949 5.47992Z" fill="#FFE177"/>
</g>
<g id="Group_13">
<path id="Vector_6" d="M8.20029 5.48005C7.7771 5.49626 7.36815 5.57168 6.98047 5.69634C8.84072 6.29172 10.188 8.03407 10.188 10.092C10.188 10.4987 10.1343 10.8926 10.0355 11.2681C10.1868 11.3662 10.2872 11.5362 10.2872 11.7299C10.2872 12.0338 10.0409 12.2802 9.73691 12.2802H8.93221V15.5096H10.4696C10.8299 14.608 11.3339 13.7694 11.9523 13.0158C12.6053 12.2199 12.9974 11.2018 12.9974 10.0919C12.9974 7.4827 10.8321 5.37916 8.20029 5.48005Z" fill="#FFD15B"/>
</g>
<path id="Vector_7" d="M9.73856 11.1796H7.02878C6.72481 11.1796 6.47852 11.4259 6.47852 11.7298C6.47852 12.0337 6.72481 12.2801 7.02878 12.2801H7.83341V15.5095H8.93393V12.2801H9.73863C10.0426 12.2801 10.2889 12.0337 10.2889 11.7298C10.2889 11.4259 10.0425 11.1796 9.73856 11.1796Z" fill="white"/>
<g id="Group_14">
<path id="Vector_8" d="M10.9244 19.0727H5.83914C5.63349 19.0727 5.4668 18.906 5.4668 18.7004V15.8089C5.4668 15.6032 5.63349 15.4365 5.83914 15.4365H10.9244C11.1301 15.4365 11.2968 15.6032 11.2968 15.8089V18.7004C11.2968 18.906 11.1301 19.0727 10.9244 19.0727Z" fill="#E2DEE2"/>
</g>
<g id="Group_15">
<path id="Vector_9" d="M10.9245 15.4365H9.07079V16.6408C9.07079 17.046 8.74232 17.3745 8.33711 17.3745H5.4668V18.7004C5.4668 18.906 5.63349 19.0727 5.83914 19.0727H10.9244C11.1301 19.0727 11.2968 18.906 11.2968 18.7004V15.8089C11.2969 15.6033 11.1302 15.4365 10.9245 15.4365Z" fill="#CBC4CC"/>
</g>
</g>
</g>
<g id="Group_16">
<g id="Group_17">
<g id="Group_18">
<path id="Vector_10" d="M24.4004 20.2591H25.2966C25.7468 20.2591 26.1572 20.4326 26.4648 20.7161V17.5258L26.1688 17.4476H24.4004V20.2591Z" fill="#A44F3E"/>
</g>
<g id="Group_19">
<path id="Vector_11" d="M14.1506 17.4476L13.8809 17.5258V20.7161C14.1884 20.4326 14.5988 20.2591 15.049 20.2591H15.9452V17.4476H14.1506Z" fill="#BB5D4C"/>
</g>
</g>
<g id="Group_20">
<path id="Vector_12" d="M30.0652 37.1185H10.278C9.86666 37.1185 9.5332 36.785 9.5332 36.3737V31.769C9.5332 29.7349 11.1822 28.0861 13.2161 28.0861H27.1271C29.1611 28.0861 30.81 29.735 30.81 31.769V36.3737C30.81 36.7851 30.4765 37.1185 30.0652 37.1185Z" fill="#D8ECFE"/>
</g>
<g id="Group_21">
<g id="Group_22">
<path id="Vector_13" d="M20.1733 27.4572L19.0684 28.2643V37.1181H21.2781V28.2643L20.1733 27.4572Z" fill="#EAF6FF"/>
</g>
</g>
<g id="Group_23">
<path id="Vector_14" d="M28.0356 28.1993V34.1522C28.0356 34.5635 27.7021 34.897 27.2908 34.897H9.5332V36.3738C9.5332 36.7851 9.86666 37.1186 10.278 37.1186H30.0652C30.4765 37.1186 30.81 36.7851 30.81 36.3738V31.7691C30.81 30.0487 29.6302 28.604 28.0356 28.1993Z" fill="#C4E2FF"/>
</g>
<g id="Group_24">
<path id="Vector_15" d="M19.0684 34.897H21.2781V37.1186H19.0684V34.897Z" fill="#D8ECFE"/>
</g>
<g id="Group_25">
<path id="Vector_16" d="M21.3941 26.839H18.9502C18.1126 26.839 17.3543 26.4944 16.8086 25.9399V29.2817C16.8086 29.5831 17.1508 29.7569 17.3941 29.5791L20.1722 27.5496L22.9502 29.5791C23.1936 29.7569 23.5358 29.583 23.5358 29.2817V25.9399C22.99 26.4944 22.2317 26.839 21.3941 26.839Z" fill="#C4E2FF"/>
</g>
<g id="Group_26">
<g id="Group_27">
<path id="Vector_17" d="M15.9401 20.1855H15.0491C14.0555 20.1855 13.25 20.9911 13.25 21.9847C13.25 22.9783 14.0555 23.7838 15.0491 23.7838H15.9401V20.1855Z" fill="#FFCEBF"/>
</g>
<g id="Group_28">
<path id="Vector_18" d="M25.2992 20.1853H24.4082V23.7836H25.2992C26.2928 23.7836 27.0983 22.9781 27.0983 21.9844C27.0983 20.9908 26.2928 20.1853 25.2992 20.1853Z" fill="#FFB09E"/>
</g>
</g>
<g id="Group_29">
<path id="Vector_19" d="M15.8711 17.4521V23.8323C15.8711 25.5336 17.2502 26.9127 18.9515 26.9127H21.3954C23.0966 26.9127 24.4757 25.5336 24.4757 23.8323V17.4521H15.8711Z" fill="#FFDFCF"/>
</g>
<g id="Group_30">
<path id="Vector_20" d="M22.2523 17.4521V24.4224C22.2523 25.446 21.7527 26.3525 20.9844 26.9126H21.3962C23.0975 26.9126 24.4766 25.5335 24.4766 23.8322V17.452L22.2523 17.4521Z" fill="#FFCEBF"/>
</g>
<g id="Group_31">
<path id="Vector_21" d="M26.4669 17.5258H13.8809V16.6026C13.8809 14.6499 15.4639 13.067 17.4165 13.067H22.9312C24.8839 13.067 26.4668 14.65 26.4668 16.6026V17.5258H26.4669Z" fill="#883F2E"/>
</g>
<g id="Group_32">
<path id="Vector_22" d="M22.93 13.067H21.418C21.9198 13.4005 22.2507 13.9708 22.2507 14.6185V17.5258H26.4656V16.6026C26.4657 14.65 24.8827 13.067 22.93 13.067Z" fill="#6D3326"/>
</g>
</g>
</g>
</g>
</g>
<g id="Group_33">
<g id="Group_34">
<path id="Vector_23" d="M33.1192 6.83779C33.0163 5.40227 31.8601 4.21371 30.4298 4.07313C28.8191 3.91502 27.3809 5.04211 27.1578 6.63985C27.1387 6.77756 27.1289 6.91806 27.1289 7.05731C27.1289 7.3612 27.3752 7.60757 27.6792 7.60757C27.9831 7.60757 28.2294 7.3612 28.2294 7.05731C28.2294 6.96861 28.2356 6.87925 28.2478 6.79179C28.3889 5.781 29.3 5.06808 30.3221 5.1683C31.2258 5.25715 31.9563 6.00873 32.0215 6.91645C32.0771 7.69239 31.6634 8.41616 30.9676 8.76041C30.1102 9.18448 29.5777 10.0355 29.5777 10.9813V12.0667C29.5777 12.3706 29.824 12.617 30.128 12.617C30.4319 12.617 30.6782 12.3706 30.6782 12.0667V10.9813C30.6782 10.457 30.9761 9.98404 31.4557 9.74684C32.5539 9.20348 33.207 8.06165 33.1192 6.83779Z" fill="white"/>
<path id="Vector_24" d="M30.1284 13.6583C29.8244 13.6583 29.5781 13.9047 29.5781 14.2086V14.2854C29.5781 14.5893 29.8244 14.8357 30.1284 14.8357C30.4324 14.8357 30.6786 14.5893 30.6786 14.2854V14.2086C30.6786 13.9047 30.4324 13.6583 30.1284 13.6583Z" fill="white"/>
</g>
<g id="Group_35">
<g id="_x3C_Radial_Repeat_x3E__00000047747444599693068480000002785770135673151371_">
<g id="Group_36">
<path id="Vector_25" d="M1.91023 14.2869C1.72006 14.2869 1.53509 14.1882 1.43319 14.0117C1.28124 13.7485 1.37141 13.412 1.63458 13.26L2.15396 12.9602C2.41698 12.8082 2.75374 12.8983 2.90561 13.1616C3.05756 13.4247 2.96739 13.7613 2.70422 13.9132L2.18484 14.2131C2.0982 14.2631 2.00355 14.2869 1.91023 14.2869Z" fill="#FFE177"/>
</g>
</g>
<g id="_x3C_Radial_Repeat_x3E__00000057131697887828430790000003652633526122236069_">
<g id="Group_37">
<path id="Vector_26" d="M1.50935 10.5536H0.909637C0.605672 10.5536 0.359375 10.3073 0.359375 10.0034C0.359375 9.69949 0.605672 9.45312 0.909637 9.45312H1.50935C1.81331 9.45312 2.05961 9.69949 2.05961 10.0034C2.05961 10.3073 1.81324 10.5536 1.50935 10.5536Z" fill="#FFE177"/>
</g>
</g>
<g id="_x3C_Radial_Repeat_x3E__00000036972690957743786010000002301666371938539957_">
<g id="Group_38">
<path id="Vector_27" d="M2.42857 7.12079C2.33525 7.12079 2.2406 7.09702 2.15396 7.04698L1.63458 6.74713C1.37141 6.59518 1.28124 6.25864 1.43319 5.99547C1.58513 5.73223 1.92167 5.64206 2.18484 5.79407L2.70422 6.09393C2.96739 6.24588 3.05756 6.58242 2.90561 6.84559C2.80363 7.02204 2.61874 7.12079 2.42857 7.12079Z" fill="#FFE177"/>
</g>
</g>
<g id="_x3C_Radial_Repeat_x3E__00000017511106736801984650000007952803983754211517_">
<g id="Group_39">
<path id="Vector_28" d="M4.9465 4.60727C4.75633 4.60727 4.57144 4.50859 4.46946 4.33207L4.16953 3.81269C4.01759 3.54952 4.10768 3.21298 4.37086 3.06096C4.63417 2.90909 4.97064 2.99919 5.12259 3.26236L5.42252 3.78173C5.57446 4.0449 5.48436 4.38144 5.22119 4.53346C5.13447 4.58343 5.03983 4.60727 4.9465 4.60727Z" fill="#FFE177"/>
</g>
</g>
<g id="_x3C_Radial_Repeat_x3E__00000163778737707871764710000001586021111648638132_">
<g id="Group_40">
<path id="Vector_29" d="M8.37839 3.68742C8.07442 3.68742 7.82812 3.44105 7.82812 3.13716V2.53744C7.82812 2.23355 8.07442 1.98718 8.37839 1.98718C8.68235 1.98718 8.92865 2.23355 8.92865 2.53744V3.13716C8.92865 3.44105 8.68228 3.68742 8.37839 3.68742Z" fill="#FFE177"/>
</g>
</g>
<g id="_x3C_Radial_Repeat_x3E__00000183944676179910812350000015217463761128029082_">
<g id="Group_41">
<path id="Vector_30" d="M11.8096 4.60726C11.7163 4.60726 11.6216 4.58349 11.535 4.53345C11.2718 4.38151 11.1816 4.04497 11.3336 3.7818L11.6334 3.26242C11.7853 2.99925 12.1218 2.90901 12.3851 3.06103C12.6483 3.21297 12.7384 3.54951 12.5865 3.81268L12.2866 4.33206C12.1847 4.50851 11.9998 4.60726 11.8096 4.60726Z" fill="#FFE177"/>
</g>
</g>
<g id="_x3C_Radial_Repeat_x3E__00000139263896384412046370000005606608859378459779_">
<g id="Group_42">
<path id="Vector_31" d="M14.3223 7.12071C14.1322 7.12071 13.9473 7.02203 13.8453 6.84551C13.6933 6.58233 13.7835 6.24579 14.0467 6.09385L14.5661 5.79399C14.8292 5.64212 15.1657 5.73222 15.3177 5.99539C15.4697 6.25856 15.3795 6.5951 15.1163 6.74705L14.597 7.0469C14.5104 7.09687 14.4157 7.12071 14.3223 7.12071Z" fill="#FFE177"/>
</g>
</g>
<g id="_x3C_Radial_Repeat_x3E__00000146492870933691576750000001366675407134364805_">
<g id="Group_43">
<path id="Vector_32" d="M15.8414 10.5536H15.2417C14.9377 10.5536 14.6914 10.3073 14.6914 10.0034C14.6914 9.69949 14.9377 9.45312 15.2417 9.45312H15.8414C16.1453 9.45312 16.3916 9.69949 16.3916 10.0034C16.3916 10.3073 16.1453 10.5536 15.8414 10.5536Z" fill="#FFE177"/>
</g>
</g>
</g>
<g id="Group_44">
<g id="Group_45">
<path id="Vector_33" d="M18.603 21.0485C18.299 21.0485 18.0527 20.8021 18.0527 20.4982V19.8724C18.0527 19.5685 18.299 19.3221 18.603 19.3221C18.907 19.3221 19.1533 19.5685 19.1533 19.8724V20.4982C19.1533 20.8021 18.9069 21.0485 18.603 21.0485Z" fill="#D78878"/>
</g>
<g id="Group_46">
<path id="Vector_34" d="M21.7339 21.0484C21.4299 21.0484 21.1836 20.802 21.1836 20.4981V19.8723C21.1836 19.5684 21.4299 19.322 21.7339 19.322C22.0378 19.322 22.2841 19.5684 22.2841 19.8723V20.4981C22.2841 20.802 22.0378 21.0484 21.7339 21.0484Z" fill="#D78878"/>
</g>
</g>
<g id="Group_47">
<path id="Vector_35" d="M20.1694 25.0382C19.0033 25.0382 18.0547 24.0895 18.0547 22.9234C18.0547 22.6195 18.301 22.3732 18.6049 22.3732C18.9089 22.3732 19.1552 22.6195 19.1552 22.9234C19.1552 23.4827 19.6102 23.9377 20.1694 23.9377C20.7286 23.9377 21.1835 23.4827 21.1835 22.9234C21.1835 22.6195 21.4298 22.3732 21.7338 22.3732C22.0378 22.3732 22.2841 22.6195 22.2841 22.9234C22.2841 24.0895 21.3355 25.0382 20.1694 25.0382Z" fill="#D78878"/>
</g>
</g>
</g>
</g>
<defs>
<clipPath id="clip0_507_8599">
<rect width="37.5645" height="37.5645" fill="white" transform="translate(0.359375 0.602783)"/>
</clipPath>
</defs>
</svg>
