<svg width="32" height="32" viewBox="0 0 32 32" fill="none" xmlns="http://www.w3.org/2000/svg">
<g id="&#240;&#159;&#166;&#134; icon &#34;bathroom&#34;">
<path id="Vector" d="M29.0227 17.3046H4.45832V5.79009C4.45714 5.35646 4.54197 4.9269 4.70792 4.52628C4.87387 4.12566 5.11763 3.76193 5.4251 3.45615L5.45069 3.43056C5.93255 2.94941 6.55121 2.62876 7.22215 2.51241C7.89309 2.39606 8.58359 2.48969 9.19932 2.7805C8.61781 3.74734 8.37611 4.88078 8.51262 6.00073C8.64913 7.12067 9.15603 8.16287 9.95275 8.96171L10.6533 9.66224L9.36385 10.9517L10.8112 12.3991L12.1007 11.1097L19.2454 3.9651L20.5348 2.67566L19.0874 1.22821L17.7979 2.51765L17.0973 1.81712C16.2586 0.980734 15.153 0.465155 13.9732 0.360229C12.7933 0.255302 11.6141 0.567679 10.6409 1.24293C9.61475 0.594857 8.39865 0.315081 7.19242 0.449558C5.9862 0.584035 4.86158 1.12477 4.00331 1.98293L3.97772 2.00852C3.47955 2.50396 3.08459 3.09329 2.81572 3.7424C2.54684 4.39151 2.40938 5.0875 2.41129 5.79009V17.3046H0.364258V19.3517H2.41129V21.3156C2.41125 21.4806 2.43786 21.6445 2.4901 21.801L4.39435 27.5135C4.49598 27.8194 4.69138 28.0854 4.95281 28.2739C5.21425 28.4623 5.52841 28.5636 5.85069 28.5633H6.6759L5.92963 31.1221H8.06193L8.80827 28.5633H22.1204L22.888 31.1221H25.0246L24.257 28.5633H25.5831C25.9054 28.5637 26.2196 28.4624 26.4811 28.2739C26.7426 28.0855 26.938 27.8194 27.0397 27.5135L28.9438 21.801C28.996 21.6445 29.0227 21.4806 29.0227 21.3156V19.3517H31.0697V17.3046H29.0227ZM11.4003 3.26456C11.9643 2.70184 12.7284 2.3858 13.5251 2.3858C14.3218 2.3858 15.0859 2.70184 15.6499 3.26456L16.3503 3.9651L12.1009 8.21454L11.4003 7.51414C10.8376 6.95017 10.5216 6.18603 10.5216 5.38935C10.5216 4.59268 10.8376 3.82853 11.4003 3.26456ZM26.9757 21.2324L25.2145 26.5163H6.21954L4.45832 21.2324V19.3517H26.9757V21.2324Z" fill="#2B2B2B"/>
</g>
</svg>
