<svg width="39" height="29" viewBox="0 0 39 29" fill="none" xmlns="http://www.w3.org/2000/svg">
<g id="&#240;&#159;&#166;&#134; icon &#34;bed&#34;">
<path id="Vector" d="M32.4986 6.37715H15.8664V16.0221H14.0949V12.7437C14.0929 10.8862 13.3541 9.10532 12.0407 7.79185C10.7272 6.47838 8.94639 5.73955 7.08889 5.73746H3.07246V0.619873H0.513672V28.1269H3.07246V24.3092L36.3368 24.5754V28.1269H38.8955V12.7741C38.8936 11.0781 38.219 9.45216 37.0198 8.25291C35.8205 7.05366 34.1946 6.37908 32.4986 6.37715ZM3.07246 8.29625H7.08889C8.26796 8.29758 9.39837 8.76656 10.2321 9.60029C11.0658 10.434 11.5348 11.5644 11.5361 12.7435V16.022H3.07246V8.29625ZM36.3368 22.0165L3.07246 21.7504V18.5809H36.3368V22.0165ZM36.3368 16.0221H18.4252V8.93594H32.4986C33.5162 8.93711 34.4917 9.34186 35.2113 10.0614C35.9308 10.781 36.3356 11.7565 36.3368 12.7741V16.0221Z" fill="#2B2B2B"/>
</g>
</svg>
