<svg width="23" height="23" viewBox="0 0 23 23" fill="none" xmlns="http://www.w3.org/2000/svg">
<g id="Icon">
<path id="Vector" d="M16.9178 11.0668H4.48535V6.57732C4.48672 6.11978 4.66908 5.68137 4.99261 5.35784C5.31614 5.03431 5.75455 4.85195 6.21208 4.85059H16.5725C17.03 4.85195 17.4684 5.03431 17.7919 5.35784C18.1155 5.68137 18.2978 6.11978 18.2992 6.57732V11.0668H16.9178Z" stroke="#FD1E28" stroke-width="2.21022" stroke-linecap="round" stroke-linejoin="round"/>
<path id="Vector_2" d="M2.41309 18.6645V13.8297C2.41525 13.0976 2.70702 12.3961 3.22467 11.8785C3.74232 11.3608 4.44379 11.0691 5.17586 11.0669H17.6083C18.3404 11.0691 19.0419 11.3608 19.5595 11.8785C20.0772 12.3961 20.3689 13.0976 20.3711 13.8297V18.6645" stroke="#FD1E28" stroke-width="2.21022" stroke-linecap="round" stroke-linejoin="round"/>
<path id="Vector_3" d="M2.41309 18.6646V18.3192C2.41388 18.0447 2.52329 17.7817 2.71742 17.5875C2.91154 17.3934 3.1746 17.284 3.44913 17.2832H19.3351C19.6096 17.284 19.8726 17.3934 20.0668 17.5875C20.2609 17.7817 20.3703 18.0447 20.3711 18.3192V18.6646" stroke="#FD1E28" stroke-width="2.21022" stroke-linecap="round" stroke-linejoin="round"/>
</g>
</svg>
