<svg width="38" height="38" viewBox="0 0 38 38" fill="none" xmlns="http://www.w3.org/2000/svg">
<g id="Businessman" clip-path="url(#clip0_507_8813)">
<path id="Vector" d="M37.9076 7.22582C37.9076 3.27626 34.3925 0.074707 30.0563 0.074707C25.7202 0.074707 22.2051 3.27626 22.2051 7.22582C22.2051 11.1754 25.7202 14.3769 30.0563 14.3769C34.3925 14.3769 37.9076 11.1754 37.9076 7.22582Z" fill="#79BBE8"/>
<path id="Vector_2" d="M23.6582 15.2284C23.6582 15.9689 23.0578 16.5694 22.3173 16.5694C21.5767 16.5694 20.9766 15.9689 20.9766 15.2284C20.9766 14.4878 21.5767 13.8877 22.3173 13.8877C23.0578 13.8877 23.6582 14.4878 23.6582 15.2284Z" fill="#79BBE8"/>
<path id="Vector_3" d="M35.6737 4.91465L34.3109 10.6239H25.8016L24.4395 4.91465L27.2475 6.39262L28.5601 5.19408L30.0561 3.82788L32.865 6.39262L35.6737 4.91465Z" fill="#FFC627"/>
<path id="Vector_4" d="M28.9585 10.6238H25.8016L24.4395 4.91455L27.2475 6.39252L28.5601 5.19398L28.9585 10.6238Z" fill="#EAAD18"/>
<path id="Vector_5" d="M19.6793 33.3873V37.6395H1.03516V33.3873C1.03516 31.5602 2.51599 30.0791 4.34246 30.0791H16.3714C18.1985 30.0791 19.6793 31.5602 19.6793 33.3873Z" fill="#3B485B"/>
<path id="Vector_6" d="M19.6825 33.3873V37.6395H2.17188V33.3873C2.17188 31.5602 3.65271 30.0791 5.47975 30.0791H16.3746C18.2017 30.0791 19.6825 31.5602 19.6825 33.3873Z" fill="#515F75"/>
<path id="Vector_7" d="M4.43528 30.0798L4.23438 35.1669L6.37294 35.7014L4.45276 37.6213H16.2602L14.34 35.7014L16.4786 35.1669L16.2779 30.0798" fill="#3B485B"/>
<path id="Vector_8" d="M14.434 30.0798L12.2802 37.6393H8.43501L6.28125 30.0798" fill="#F2F2F2"/>
<path id="Vector_9" d="M7.72266 31.9353L10.3576 35.2335L12.9659 31.9479L10.3576 31.4604L7.72266 31.9353Z" fill="#F74866"/>
<path id="Vector_10" d="M7.49154 34.3269L10.3578 31.4606L13.2237 34.3269L14.434 30.0798H6.28125L7.49154 34.3269Z" fill="#E6E6E6"/>
<path id="Vector_11" d="M12.8093 25.8324V30.08L10.3589 31.4606L9.60169 31.0341L7.9082 30.08V25.8298L9.60169 25.8304L12.8093 25.8324Z" fill="#F9C2AF"/>
<path id="Vector_12" d="M8.44922 37.6388L10.3585 35.2332L12.281 37.6388" fill="#F74866"/>
<path id="Vector_13" d="M9.60169 25.8304L7.9082 25.8298V30.0797L9.60169 31.0341V29.0689C9.85189 29.0936 10.1052 29.1076 10.362 29.1076C11.2175 29.1076 12.0406 28.9678 12.8093 28.7101V25.8324L9.60169 25.8304Z" fill="#EA9E8F"/>
<path id="Vector_14" d="M2.66961 21.3603C1.3937 21.3603 0.359375 20.4346 0.359375 19.2922C0.359375 18.1501 1.3937 17.2241 2.66961 17.2241H18.0543C19.3302 17.2241 20.3645 18.1501 20.3645 19.2922C20.3645 20.4346 19.3302 21.3603 18.0543 21.3603" fill="#EA9E8F"/>
<path id="Vector_15" d="M18.0529 12.6975V20.3903C18.0529 24.6385 14.6089 28.0825 10.3602 28.0825C8.2365 28.0825 6.31259 27.2213 4.92089 25.8296C3.52919 24.4379 2.66797 22.5139 2.66797 20.3903V12.6975H18.0529Z" fill="#F9C2AF"/>
<path id="Vector_16" d="M10.3057 28.0822C8.20297 28.0681 6.30142 27.21 4.92089 25.8298C3.5289 24.4372 2.66797 22.5148 2.66797 20.3902V12.6978H6.13118V20.3902C6.13118 22.5148 6.60435 24.4372 7.36984 25.8298C8.1233 27.2 9.15934 28.0558 10.3057 28.0822Z" fill="#EA9E8F"/>
<path id="Vector_17" d="M13.098 20.3063C12.8163 20.3063 12.5879 20.0782 12.5879 19.7962V18.7275C12.5879 18.4457 12.8163 18.217 13.098 18.217C13.3798 18.217 13.6085 18.4455 13.6085 18.7275V19.7962C13.6085 20.0779 13.38 20.3063 13.098 20.3063Z" fill="#293544"/>
<path id="Vector_18" d="M7.62342 20.3063C7.3417 20.3063 7.11328 20.0782 7.11328 19.7962V18.7275C7.11328 18.4457 7.3417 18.217 7.62342 18.217C7.90514 18.217 8.13384 18.4455 8.13384 18.7275V19.7962C8.13384 20.0779 7.90514 20.3063 7.62342 20.3063Z" fill="#293544"/>
<path id="Vector_19" d="M18.0529 12.6975V14.6254C17.5256 15.0029 16.8951 15.3342 16.1462 15.6042C13.3585 16.6084 10.6599 16.2702 8.75209 15.7383C8.75209 15.7383 8.75123 15.7383 8.75123 15.7377C7.08898 15.2751 6.02628 14.6641 6.02628 14.6641C6.02628 14.6641 5.32499 18.0402 2.66797 18.0402V12.6975H18.0529Z" fill="#EA9E8F"/>
<path id="Vector_20" d="M16.1484 14.7882C13.3613 15.7924 10.6627 15.4545 8.75426 14.9223C8.75426 14.9223 8.7534 14.9223 8.7534 14.9217C7.09144 14.4586 6.02904 13.8479 6.02904 13.8479C6.02904 13.8479 5.32745 17.2239 2.67043 17.2239C2.67043 17.2239 0.902716 14.0972 0.958316 11.2043C0.986975 9.70398 2.22392 8.58196 3.62995 8.58196C3.89276 8.58196 4.1613 8.62094 4.42869 8.70434C5.18186 6.68213 7.17111 5.40248 9.32487 5.53346C9.66048 5.55409 9.9978 5.58103 10.3366 5.6117C10.4016 5.61686 10.467 5.62287 10.5317 5.62889C10.5386 5.62975 10.5452 5.63033 10.5518 5.6309C14.0677 5.96106 17.6287 6.60389 19.7211 4.28906C19.7211 4.28906 23.1791 12.2555 16.1484 14.7882Z" fill="#515F75"/>
<path id="Vector_21" d="M9.32487 5.53311C9.66019 5.55375 9.9978 5.5804 10.3366 5.61107C7.23445 5.48038 4.77002 12.3119 8.7534 14.9214C7.09144 14.4582 6.02904 13.8475 6.02904 13.8475C6.02904 13.8475 5.32745 17.2236 2.67043 17.2236C2.67043 17.2236 0.902716 14.0968 0.958316 11.204C0.986975 9.70364 2.22392 8.58162 3.62995 8.58162C3.89276 8.58162 4.1613 8.6206 4.42869 8.704C5.18157 6.68179 7.17111 5.40214 9.32487 5.53311Z" fill="#3B485B"/>
<path id="Vector_22" d="M10.5539 5.63138C10.546 5.63017 10.5391 5.62957 10.5312 5.62866C10.5382 5.62957 10.5454 5.63017 10.5524 5.63077L10.5539 5.63138Z" fill="#F4AF9D"/>
<path id="Vector_23" d="M10.3603 24.394C9.54633 24.394 8.73211 24.0842 8.11249 23.4645C7.91302 23.2654 7.91302 22.9424 8.11249 22.7429C8.31168 22.5437 8.63467 22.5437 8.83385 22.7429C9.67558 23.5846 11.0452 23.5846 11.8869 22.7429C12.0861 22.5437 12.4091 22.5437 12.6083 22.7429C12.8078 22.9421 12.8078 23.2651 12.6083 23.4645C11.9887 24.0842 11.1745 24.394 10.3603 24.394Z" fill="#E06E86"/>
</g>
<defs>
<clipPath id="clip0_507_8813">
<rect width="37.5645" height="37.5645" fill="white" transform="translate(0.359375 0.074707)"/>
</clipPath>
</defs>
</svg>
