<svg width="38" height="39" viewBox="0 0 38 39" fill="none" xmlns="http://www.w3.org/2000/svg">
<g id="Consultant" clip-path="url(#clip0_507_8691)">
<g id="Group">
<path id="Vector" d="M37.1643 1.05493H18.711C18.2935 1.05493 17.9552 1.39331 17.9552 1.81077V5.27786C19.1822 5.9574 20.0151 7.26533 20.0151 8.76454V12.4408L20.0672 12.4566C20.8084 12.6807 21.3261 13.3784 21.3261 14.1533V14.8987C21.3261 15.8761 20.531 16.6713 19.5536 16.6713H18.2095V17.837C18.2095 18.3085 18.1186 18.7589 17.9551 19.173V23.733L22.817 25.298C24.3543 25.7929 25.3873 27.2105 25.3873 28.8255V28.9469H27.4476L28.7701 27.6243C29.0027 27.3918 29.312 27.2637 29.6409 27.2637C29.9697 27.2637 30.279 27.3918 30.5115 27.6243C30.7441 27.8569 30.8722 28.1661 30.8722 28.495C30.8722 28.8239 30.7441 29.1331 30.5115 29.3657L29.679 30.1982H37.1643C37.5818 30.1982 37.9202 29.8598 37.9202 29.4423V1.81077C37.9202 1.39331 37.5818 1.05493 37.1643 1.05493Z" fill="#FEF0AE"/>
<g id="Group_2">
<path id="Vector_2" d="M37.1668 1.05493H34.6348C35.0522 1.05493 35.3906 1.39331 35.3906 1.81077V29.4424C35.3906 29.8598 35.0522 30.1983 34.6348 30.1983H37.1668C37.5842 30.1983 37.9226 29.8599 37.9226 29.4424V1.81077C37.9226 1.39331 37.5842 1.05493 37.1668 1.05493Z" fill="#FEE97D"/>
</g>
<g id="Group_3">
<path id="Vector_3" d="M16.2522 6.98012V10.5017H16.7742C17.566 10.5017 18.2102 11.146 18.2102 11.9378V12.3827H19.5564C19.7428 12.3827 19.9225 12.4119 20.0914 12.4655V8.76429C20.0914 6.52392 18.2752 4.70776 16.0348 4.70776H15.3516C15.9095 5.30293 16.2522 6.10205 16.2522 6.98012Z" fill="#A44F3E"/>
</g>
<g id="Group_4">
<g id="Group_5">
<path id="Vector_4" d="M32.8119 17.0988H23.0659C22.762 17.0988 22.5156 16.8524 22.5156 16.5486C22.5156 16.2447 22.762 15.9983 23.0659 15.9983H32.8118C33.1157 15.9983 33.3621 16.2447 33.3621 16.5486C33.3621 16.8524 33.1158 17.0988 32.8119 17.0988Z" fill="#FFC344"/>
</g>
<g id="Group_6">
<path id="Vector_5" d="M32.8119 19.467H23.0659C22.762 19.467 22.5156 19.2206 22.5156 18.9167C22.5156 18.6128 22.762 18.3665 23.0659 18.3665H32.8118C33.1157 18.3665 33.3621 18.6128 33.3621 18.9167C33.3621 19.2206 33.1158 19.467 32.8119 19.467Z" fill="#FFC344"/>
</g>
<g id="Group_7">
<path id="Vector_6" d="M32.8119 21.8349H23.0659C22.762 21.8349 22.5156 21.5885 22.5156 21.2846C22.5156 20.9807 22.762 20.7344 23.0659 20.7344H32.8118C33.1157 20.7344 33.3621 20.9807 33.3621 21.2846C33.3621 21.5885 33.1158 21.8349 32.8119 21.8349Z" fill="#FFC344"/>
</g>
<g id="Group_8">
<path id="Vector_7" d="M29.8718 24.2031H23.0659C22.762 24.2031 22.5156 23.9567 22.5156 23.6528C22.5156 23.3489 22.762 23.1025 23.0659 23.1025H29.8718C30.1757 23.1025 30.4221 23.3489 30.4221 23.6528C30.4221 23.9567 30.1757 24.2031 29.8718 24.2031Z" fill="#FFC344"/>
</g>
</g>
<g id="Group_9">
<g id="Group_10">
<g id="Group_11">
<g id="Group_12">
<g id="Group_13">
<g id="Group_14">
<g id="Group_15">
<path id="Vector_8" d="M8.80438 23.373H8.73101L2.96295 25.2297C1.40087 25.7326 0.341797 27.1861 0.341797 28.8271V36.7297C0.341797 37.1472 0.680171 37.4856 1.09764 37.4856H8.80438V23.373Z" fill="#596C76"/>
<path id="Vector_9" d="M22.8258 25.2297L17.0577 23.373H16.9844V37.4856H22.2728V31.7683C22.2728 30.2134 23.5378 28.9484 25.0926 28.9484H25.447V28.827C25.447 27.1861 24.3879 25.7326 22.8258 25.2297Z" fill="#596C76"/>
</g>
<g id="Group_16">
<path id="Vector_10" d="M22.9061 29.8776C23.4367 29.2637 24.2204 28.8746 25.0954 28.8746H25.4498V28.8266C25.4498 27.1856 24.3907 25.7321 22.8287 25.2293L21.8379 24.9104C22.5069 25.5998 22.9061 26.5357 22.9061 27.5426V29.8776Z" fill="#465A61"/>
</g>
<g id="Group_17">
<g id="Group_18">
<path id="Vector_11" d="M8.8079 23.1802L5.58417 27.5259C5.46634 27.6847 5.49092 27.9075 5.64045 28.0369L8.8079 30.7762V23.1802Z" fill="#8D9CA8"/>
</g>
<g id="Group_19">
<path id="Vector_12" d="M20.2082 27.5268L16.9805 23.0991V30.7766L20.1501 28.0353C20.2987 27.9067 20.324 27.6857 20.2082 27.5268Z" fill="#8D9CA8"/>
</g>
</g>
<g id="Group_20">
<g id="Group_21">
<path id="Vector_13" d="M8.80608 29.0396L5.5897 31.8213C5.46181 31.9319 5.42293 32.1141 5.49461 32.2672L7.93572 37.4857H8.80616L8.80608 29.0396Z" fill="#7A8C98"/>
</g>
<g id="Group_22">
<path id="Vector_14" d="M20.1964 31.8189L16.9824 29.0393V37.4855H17.7806L20.2898 32.2686C20.3637 32.1148 20.3254 31.9306 20.1964 31.8189Z" fill="#7A8C98"/>
</g>
</g>
<path id="Vector_15" d="M13.1525 25.5395C13.0755 25.4907 12.9867 25.4648 12.8958 25.4648C12.8047 25.4648 12.7159 25.4907 12.639 25.5395L8.73242 28.0192V37.4853H10.8071L10.8854 37.4473L11.9309 28.557L12.6173 29.3149C12.6895 29.3945 12.7884 29.4384 12.8957 29.4384C13.0031 29.4384 13.102 29.3945 13.1741 29.3149L13.8605 28.557L14.9058 37.4455L14.9843 37.4853H17.059V28.0193L13.1525 25.5395Z" fill="#DFF6FD"/>
<path id="Vector_16" d="M14.5273 27.8248L15.4841 28.4322C15.6962 28.5667 15.8246 28.8005 15.8246 29.0516V37.4852H17.0598V28.1491L15.2654 27.01L14.5273 27.8248Z" fill="#C8EFFE"/>
<g id="Group_23">
<g id="Group_24">
<path id="Vector_17" d="M13.1213 29.2657C13.0633 29.3297 12.9837 29.365 12.8972 29.365C12.8107 29.365 12.7312 29.3297 12.6732 29.2657L11.8784 28.3882L10.8086 37.4854H14.986L13.9162 28.3882L13.1213 29.2657Z" fill="#0593FC"/>
</g>
</g>
<g id="Group_25">
<path id="Vector_18" d="M12.895 25.4167L10.4746 26.9532L12.6148 29.3161C12.7649 29.4817 13.025 29.4817 13.175 29.3161L15.3152 26.9532L12.895 25.4167Z" fill="#26A6FE"/>
</g>
<g id="Group_26">
<path id="Vector_19" d="M6.24977 12.3844H7.59601V11.9394C7.59601 11.1475 8.24025 10.5034 9.03204 10.5034H16.3119V6.98177C16.3119 5.10332 14.7891 3.58057 12.9107 3.58057H9.11605C7.2376 3.58057 5.71484 5.10332 5.71484 6.98177V12.4672C5.88374 12.4136 6.06334 12.3844 6.24977 12.3844Z" fill="#BB5D4C"/>
</g>
<g id="Group_27">
<path id="Vector_20" d="M16.685 22.4258L14.9657 21.4331C14.9082 21.436 14.8504 21.4376 14.7922 21.4376H11.007C10.9488 21.4376 10.891 21.4361 10.8336 21.4331L9.11425 22.4258C8.88042 22.5608 8.73633 22.8103 8.73633 23.0804V28.1495L12.8996 25.5067L17.063 28.1495V23.0804C17.063 22.8103 16.9189 22.5608 16.685 22.4258Z" fill="#F2FBFF"/>
</g>
<g id="Group_28">
<path id="Vector_21" d="M16.6832 22.4258L14.9638 21.4331C14.9063 21.436 14.8485 21.4376 14.7903 21.4376H13.7363L15.448 22.4258C15.6818 22.5608 15.8259 22.8103 15.8259 23.0804V27.3654L17.0611 28.1495V23.0804C17.0611 22.8103 16.9171 22.5608 16.6832 22.4258Z" fill="#DFF6FD"/>
</g>
<g id="Group_29">
<path id="Vector_22" d="M14.5484 21.4847H11.2433C10.967 21.4847 10.6982 21.4528 10.4395 21.3943V22.7132C10.4395 22.8279 10.4915 22.9363 10.581 23.0081L12.6595 24.6742C12.7977 24.7849 12.9941 24.7849 13.1322 24.6742L15.2107 23.0081C15.3002 22.9363 15.3523 22.8279 15.3523 22.7132V21.3943C15.0934 21.4528 14.8247 21.4847 14.5484 21.4847Z" fill="#F89580"/>
</g>
<g id="Group_30">
<path id="Vector_23" d="M19.5393 12.3083H18.1953V16.7457H19.5393C20.5589 16.7457 21.3853 15.9192 21.3853 14.8997V14.1543C21.3853 13.1348 20.5589 12.3083 19.5393 12.3083Z" fill="#F89580"/>
<path id="Vector_24" d="M7.59427 12.3083H6.25024C5.23072 12.3083 4.4043 13.1348 4.4043 14.1543V14.8997C4.4043 15.9192 5.23079 16.7457 6.25024 16.7457H7.59427V12.3083Z" fill="#F89580"/>
</g>
<g id="Group_31">
<path id="Vector_25" d="M16.7595 10.4275H9.03316C8.19831 10.4275 7.52148 11.1043 7.52148 11.9392V17.8382C7.52148 19.8939 9.18797 21.5604 11.2437 21.5604H14.5488C16.6045 21.5604 18.271 19.8939 18.271 17.8382V11.9392C18.2711 11.1042 17.5944 10.4275 16.7595 10.4275Z" fill="#FFCEBF"/>
</g>
<g id="Group_32">
<path id="Vector_26" d="M16.7583 10.4275H14.8336C15.6684 10.4275 16.3452 11.1043 16.3452 11.9392V17.8382C16.3452 19.8939 14.6788 21.5604 12.623 21.5604H14.5478C16.6035 21.5604 18.27 19.8939 18.27 17.8382V11.9392C18.2699 11.1042 17.5932 10.4275 16.7583 10.4275Z" fill="#FFB09E"/>
</g>
<g id="Group_33">
<g id="Group_34">
<path id="Vector_27" d="M10.5327 14.4911C10.2288 14.4911 9.98242 14.2447 9.98242 13.9408V12.8523C9.98242 12.5484 10.2288 12.302 10.5327 12.302C10.8366 12.302 11.0829 12.5484 11.0829 12.8523V13.9408C11.0829 14.2447 10.8366 14.4911 10.5327 14.4911Z" fill="#F89580"/>
</g>
<g id="Group_35">
<path id="Vector_28" d="M15.2651 14.4911C14.9612 14.4911 14.7148 14.2447 14.7148 13.9408V12.8523C14.7148 12.5484 14.9612 12.302 15.2651 12.302C15.569 12.302 15.8154 12.5484 15.8154 12.8523V13.9408C15.8154 14.2447 15.569 14.4911 15.2651 14.4911Z" fill="#F89580"/>
</g>
</g>
</g>
</g>
</g>
<g id="Group_36">
<path id="Vector_29" d="M12.9044 16.6299C12.2097 16.6299 11.6445 16.0647 11.6445 15.37C11.6445 14.6753 12.2098 14.1101 12.9044 14.1101C13.2083 14.1101 13.4547 14.3565 13.4547 14.6604C13.4547 14.9643 13.2083 15.2106 12.9044 15.2106C12.8165 15.2106 12.7451 15.2822 12.7451 15.37C12.7451 15.4579 12.8166 15.5294 12.9044 15.5294C13.2083 15.5294 13.4547 15.7758 13.4547 16.0797C13.4547 16.3836 13.2083 16.6299 12.9044 16.6299Z" fill="#F89580"/>
</g>
</g>
</g>
</g>
<g id="Group_37">
<path id="Vector_30" d="M12.8585 19.7129C12.2805 19.7129 11.6838 19.4665 11.2498 19.0458C10.867 18.6749 10.657 18.2169 10.6582 17.7562C10.659 17.4529 10.9052 17.2075 11.2085 17.2075H11.21C11.5139 17.2083 11.7596 17.4554 11.7587 17.7593C11.7583 17.916 11.852 18.097 12.0157 18.2557C12.253 18.4857 12.5886 18.6225 12.8896 18.6119C12.902 18.6114 12.9145 18.6114 12.927 18.6119C13.2281 18.6226 13.5634 18.4856 13.8008 18.2556C13.9645 18.0969 14.0582 17.916 14.0577 17.7592C14.0569 17.4554 14.3026 17.2083 14.6065 17.2075H14.6081C14.9113 17.2075 15.1574 17.4529 15.1583 17.7563C15.1596 18.2169 14.9494 18.675 14.5668 19.0459C14.1202 19.4786 13.5001 19.7282 12.9083 19.7123C12.8918 19.7127 12.8751 19.7129 12.8585 19.7129Z" fill="#F89580"/>
</g>
<g id="Group_38">
<g id="Group_39">
<path id="Vector_31" d="M32.4098 10.9602C33.2981 8.48713 32.0134 5.76222 29.5403 4.87393C27.0673 3.98563 24.3424 5.27032 23.4541 7.74336C22.5658 10.2164 23.8505 12.9413 26.3235 13.8296C28.7966 14.7179 31.5215 13.4332 32.4098 10.9602Z" fill="#00F2A6"/>
</g>
<g id="Group_40">
<path id="Vector_32" d="M27.9385 4.5957C27.5005 4.5957 27.0767 4.65609 26.6738 4.76694C28.6877 5.32102 30.1676 7.16425 30.1676 9.35422C30.1676 11.5442 28.6877 13.3874 26.6738 13.9415C27.0767 14.0524 27.5005 14.1127 27.9385 14.1127C30.5667 14.1127 32.6971 11.9823 32.6971 9.35415C32.6971 6.72602 30.5667 4.5957 27.9385 4.5957Z" fill="#0ED290"/>
</g>
<g id="Group_41">
<path id="Vector_33" d="M27.5448 11.279C27.3988 11.279 27.2588 11.221 27.1557 11.1178L25.5166 9.47876C25.3017 9.26387 25.3017 8.91544 25.5166 8.70062C25.7315 8.48572 26.08 8.48572 26.2948 8.70062L27.5448 9.95059L29.5878 7.90751C29.8027 7.69261 30.1512 7.69261 30.366 7.90751C30.5809 8.12241 30.5809 8.47083 30.366 8.68565L27.9338 11.1178C27.8307 11.221 27.6907 11.279 27.5448 11.279Z" fill="white"/>
</g>
</g>
<path id="Vector_34" d="M22.568 31.7335L22.2148 31.8068V37.4841H27.4202C27.8376 37.4841 28.176 37.1457 28.176 36.7282V31.7334H22.568V31.7335Z" fill="#7A8C98"/>
<g id="Group_42">
<path id="Vector_35" d="M26.2441 31.8066V36.7281C26.2441 37.1455 25.9057 37.4839 25.4883 37.4839H27.4198C27.8373 37.4839 28.1757 37.1456 28.1757 36.7281V31.8066H26.2441Z" fill="#596C76"/>
</g>
<g id="Group_43">
<path id="Vector_36" d="M30.5652 27.5723C30.0556 27.0628 29.2296 27.0628 28.72 27.5723L27.419 28.8734H25.1081C23.5102 28.8734 22.2148 30.1687 22.2148 31.7666V31.8066H28.1759L30.5651 29.4174C31.0747 28.9079 31.0747 28.0818 30.5652 27.5723Z" fill="#FFCEBF"/>
</g>
<g id="Group_44">
<path id="Vector_37" d="M30.565 27.5726C30.0555 27.063 29.2294 27.063 28.7199 27.5726L28.6877 27.6047C29.1667 28.1162 29.1579 28.9185 28.6587 29.4176L26.2695 31.8068H28.1759L30.565 29.4176C31.0746 28.9082 31.0746 28.0821 30.565 27.5726Z" fill="#FFB09E"/>
</g>
<g id="Group_45">
<path id="Vector_38" d="M32.8111 24.2033H31.685C31.3811 24.2033 31.1348 23.9569 31.1348 23.653C31.1348 23.3492 31.3811 23.1028 31.685 23.1028H32.8111C33.115 23.1028 33.3613 23.3492 33.3613 23.653C33.3613 23.9569 33.115 24.2033 32.8111 24.2033Z" fill="#FFC344"/>
</g>
</g>
</g>
<defs>
<clipPath id="clip0_507_8691">
<rect width="37.5645" height="37.5645" fill="white" transform="translate(0.359375 0.487061)"/>
</clipPath>
</defs>
</svg>
