<svg width="38" height="38" viewBox="0 0 38 38" fill="none" xmlns="http://www.w3.org/2000/svg">
<g id="Customer service" clip-path="url(#clip0_507_8917)">
<g id="Group">
<path id="Vector" d="M25.391 19.4866V23.1832L22.0744 25.6804L18.7578 23.1832V19.4866H25.391Z" fill="#FED2A4"/>
<path id="Vector_2" d="M20.2252 23.1831V19.4866H18.7578V23.1831L22.0744 25.6804L22.8081 25.1279L20.2252 23.1831Z" fill="#FFBD86"/>
<path id="Vector_3" d="M9.20256 19.0778H4.42673C3.8006 19.0778 3.29297 18.5703 3.29297 17.9441V10.7668C3.29297 10.1407 3.80053 9.63306 4.42673 9.63306H9.20256C9.82868 9.63306 10.3363 10.1406 10.3363 10.7668V14.1444C10.3363 14.2796 10.3897 14.4093 10.4847 14.5055L11.8193 15.8553C12.14 16.1797 11.9102 16.73 11.4541 16.73H10.8499C10.5663 16.73 10.3363 16.96 10.3363 17.2436V17.9441C10.3363 18.5703 9.82876 19.0778 9.20256 19.0778Z" fill="#75CC77"/>
<path id="Vector_4" d="M7.98847 30.8167L12.2886 25.2346C12.547 24.8991 12.8942 24.6428 13.2909 24.4945L18.7608 22.4497L21.7661 24.7141C21.9491 24.8519 22.2012 24.8519 22.3842 24.7141L25.3894 22.4497L32.7981 24.7837C34.1034 25.2092 34.9878 26.4261 34.9878 27.801V37.8573H12.684V31.9906L8.66163 36.8503C8.24108 37.4811 7.53308 37.86 6.77496 37.86H6.73432C5.48199 37.86 4.4668 36.8448 4.4668 35.5925V33.1645L7.98847 30.8167Z" fill="#42A5F5"/>
<path id="Vector_5" d="M5.93416 35.5926V33.1645L9.45584 30.8168L13.7559 25.2347C14.0143 24.8992 14.3616 24.6428 14.7583 24.4945L19.2474 22.8163L18.7608 22.4497L13.2909 24.4945C12.8943 24.6428 12.5471 24.8992 12.2886 25.2347L7.98847 30.8168L4.4668 33.1645V35.5926C4.4668 36.8449 5.48199 37.8601 6.73431 37.8601H6.77496C7.02045 37.8601 7.26051 37.8198 7.48744 37.7446C6.58523 37.4453 5.93416 36.5952 5.93416 35.5926Z" fill="#0593FC"/>
<path id="Vector_6" d="M23.2332 24.7141C23.4162 24.8519 23.6683 24.8519 23.8513 24.7141L26.424 22.7757L25.3892 22.4497L22.8086 24.3942L23.2332 24.7141Z" fill="#0593FC"/>
<path id="Vector_7" d="M12.6855 30.7947H30.2939V35.5125H12.6855V30.7947Z" fill="#FFCA28"/>
<path id="Vector_8" d="M17.1233 9.68677H15.2513C14.379 9.68677 13.6719 10.394 13.6719 11.2662V12.4497C13.6719 13.3221 14.3791 14.0292 15.2513 14.0292H17.1233V9.68677Z" fill="#FED2A4"/>
<path id="Vector_9" d="M27.0293 9.68677H28.9014C29.7737 9.68677 30.4808 10.394 30.4808 11.2662V12.4497C30.4808 13.3221 29.7736 14.0292 28.9014 14.0292H27.0293V9.68677Z" fill="#FED2A4"/>
<path id="Vector_10" d="M16.3887 6.50537V15.0947C16.3887 17.9964 18.7408 20.3485 21.6424 20.3485H22.5102C25.4118 20.3485 27.7639 17.9964 27.7639 15.0947V6.55908L16.3887 6.50537Z" fill="#FFF3DE"/>
<path id="Vector_11" d="M17.856 15.0947V6.51227L16.3887 6.50537V15.0948C16.3887 17.9965 18.7409 20.3486 21.6424 20.3486H22.5102C22.6108 20.3486 22.7107 20.3457 22.81 20.3401C20.048 20.1846 17.856 17.8956 17.856 15.0947Z" fill="#FFE5C2"/>
<path id="Vector_12" d="M14.7792 9.68664H16.9405C18.1561 9.68664 19.1415 8.70123 19.1415 7.48559V2.64307H17.5672C15.7438 2.64307 14.2656 4.12122 14.2656 5.94464V9.17306C14.2656 9.4567 14.4956 9.68664 14.7792 9.68664Z" fill="#546E7A"/>
<path id="Vector_13" d="M15.733 9.17306V5.94464C15.733 4.12122 17.2111 2.64307 19.0346 2.64307H17.5672C15.7438 2.64307 14.2656 4.12122 14.2656 5.94464V9.17306C14.2656 9.4567 14.4956 9.68664 14.7792 9.68664H16.2466C15.9629 9.68664 15.733 9.4567 15.733 9.17306Z" fill="#435860"/>
<path id="Vector_14" d="M25.2541 0.295654C27.8246 0.295654 29.9085 2.37953 29.9085 4.95006V9.17328C29.9085 9.45692 29.6785 9.68686 29.3949 9.68686H21.4062C20.1539 9.68686 19.1387 8.67166 19.1387 7.41934V2.5631C19.1387 1.31085 20.1539 0.295654 21.4062 0.295654H25.2541Z" fill="#546E7A"/>
<path id="Vector_15" d="M20.6061 7.41934V2.56317C20.6061 1.31085 21.6213 0.295654 22.8736 0.295654H21.4062C20.1539 0.295654 19.1387 1.31085 19.1387 2.56317V7.41934C19.1387 8.67166 20.1539 9.68686 21.4062 9.68686H22.8736C21.6213 9.68686 20.6061 8.67166 20.6061 7.41934Z" fill="#435860"/>
<g id="Group_2">
<g id="Group_3">
<g id="Group_4">
<path id="Vector_16" d="M24.52 13.0645C24.2068 13.0645 23.9531 12.8107 23.9531 12.4976V11.7536C23.9531 11.4405 24.2069 11.1868 24.52 11.1868C24.833 11.1868 25.0868 11.4405 25.0868 11.7536V12.4976C25.0869 12.8107 24.8331 13.0645 24.52 13.0645Z" fill="#435860"/>
</g>
<g id="Group_5">
<path id="Vector_17" d="M19.6352 13.0645C19.3221 13.0645 19.0684 12.8107 19.0684 12.4976V11.7536C19.0684 11.4405 19.3221 11.1868 19.6352 11.1868C19.9483 11.1868 20.202 11.4405 20.202 11.7536V12.4976C20.202 12.8107 19.9483 13.0645 19.6352 13.0645Z" fill="#435860"/>
</g>
</g>
</g>
<g id="Group_6">
<path id="Vector_18" d="M22.0764 17.5684C20.9799 17.5684 20.0879 16.6763 20.0879 15.5798C20.0879 15.2666 20.3417 15.0129 20.6547 15.0129C20.9678 15.0129 21.2216 15.2667 21.2216 15.5798C21.2216 16.0512 21.605 16.4346 22.0763 16.4346C22.5476 16.4346 22.9311 16.0512 22.9311 15.5798C22.9311 15.2666 23.1848 15.0129 23.4979 15.0129C23.811 15.0129 24.0647 15.2667 24.0647 15.5798C24.0649 16.6763 23.1729 17.5684 22.0764 17.5684Z" fill="#FFBD86"/>
</g>
<g id="Group_7">
<g id="Group_8">
<path id="Vector_19" d="M29.7266 37.8567V29.7685C29.7266 29.4556 29.9798 29.2017 30.2934 29.2017C30.6063 29.2017 30.8602 29.4556 30.8602 29.7685V37.8566H29.7266V37.8567Z" fill="#0593FC"/>
</g>
</g>
<g id="Group_9">
<g id="Group_10">
<path id="Vector_20" d="M12.6836 37.8574V29.7692C12.6836 29.4563 12.9368 29.2024 13.2504 29.2024C13.5634 29.2024 13.8173 29.4563 13.8173 29.7692V37.8573H12.6836V37.8574Z" fill="#0593FC"/>
</g>
</g>
<g id="Group_11">
<g id="Group_12">
<path id="Vector_21" d="M7.42231 34.5653C7.10918 34.5653 6.85547 34.3115 6.85547 33.9985V31.9504C6.85547 31.6373 7.10925 31.3835 7.42231 31.3835C7.73537 31.3835 7.98915 31.6373 7.98915 31.9504V33.9985C7.98923 34.3116 7.73545 34.5653 7.42231 34.5653Z" fill="#0593FC"/>
</g>
</g>
<g id="Group_13">
<path id="Vector_22" d="M6.23102 16.096C6.08069 16.096 5.93652 16.0363 5.83014 15.93L4.65625 14.7561C4.4349 14.5347 4.4349 14.1758 4.65625 13.9544C4.87767 13.7331 5.23659 13.7331 5.45802 13.9544L6.23102 14.7274L8.17785 12.7805C8.39928 12.5592 8.75827 12.5592 8.97954 12.7805C9.20097 13.0019 9.20097 13.3608 8.97962 13.5822L6.63191 15.93C6.5256 16.0363 6.38143 16.096 6.23102 16.096Z" fill="#EBF6FF"/>
</g>
<path id="Vector_23" d="M5.05273 26.8548H7.40052V23.5892C7.40052 22.9598 6.89032 22.4497 6.26104 22.4497H6.19222C5.56286 22.4497 5.05273 22.9598 5.05273 23.5892V26.8548Z" fill="#FED2A4"/>
<path id="Vector_24" d="M6.77689 22.5741C6.62186 22.4951 6.44695 22.4497 6.26104 22.4497H6.19222C5.56286 22.4497 5.05273 22.9599 5.05273 23.5892V26.8548H6.15326V23.5892C6.15326 23.1457 6.40711 22.7624 6.77689 22.5741Z" fill="#FFBD86"/>
<path id="Vector_25" d="M7.98854 27.2216V32.0639C7.98854 32.6714 7.49623 33.1644 6.88801 33.1644H4.39349C3.786 33.1644 3.29297 32.6714 3.29297 32.0639V27.2216C3.29297 26.6141 3.786 26.1211 4.39349 26.1211H6.88801C7.49623 26.1211 7.98854 26.6141 7.98854 27.2216Z" fill="#FFF3DE"/>
<path id="Vector_26" d="M4.39349 32.0639V27.2216C4.39349 26.6141 4.88653 26.1211 5.49402 26.1211H4.39349C3.786 26.1211 3.29297 26.6141 3.29297 27.2216V32.0639C3.29297 32.6714 3.786 33.1644 4.39349 33.1644H5.49402C4.88653 33.1644 4.39349 32.6714 4.39349 32.0639Z" fill="#FFE5C2"/>
<g id="Group_14">
<path id="Vector_27" d="M7.99036 27.9019V29.0361H5.64257C5.32929 29.0361 5.07617 28.7823 5.07617 28.469C5.07617 28.1557 5.32929 27.9019 5.64257 27.9019H7.99036Z" fill="#FED2A4"/>
</g>
<g id="Group_15">
<path id="Vector_28" d="M7.99036 30.2495V31.3838H5.64257C5.32929 31.3838 5.07617 31.1299 5.07617 30.8166C5.07617 30.5034 5.32929 30.2495 5.64257 30.2495H7.99036Z" fill="#FED2A4"/>
</g>
</g>
</g>
<defs>
<clipPath id="clip0_507_8917">
<rect width="37.5645" height="37.5645" fill="white" transform="translate(0.359375 0.29541)"/>
</clipPath>
</defs>
</svg>
