<svg width="44" height="44" viewBox="0 0 44 44" fill="none" xmlns="http://www.w3.org/2000/svg">
<circle opacity="0.29" cx="21.8524" cy="21.9891" r="20.6973" fill="black" stroke="white" stroke-width="0.962663"/>
<g clip-path="url(#clip0_210_891)">
<path d="M30.4993 18.4206C30.4587 17.4999 30.3098 16.867 30.0965 16.3185C29.8765 15.7363 29.538 15.215 29.0945 14.7817C28.6612 14.3417 28.1365 13.9997 27.5611 13.7832C27.0094 13.5699 26.3798 13.421 25.4591 13.3804C24.5315 13.3364 24.237 13.3262 21.8844 13.3262C19.5318 13.3262 19.2374 13.3364 18.3132 13.3769C17.3925 13.4175 16.7595 13.5666 16.2112 13.7797C15.6289 13.9997 15.1076 14.3382 14.6743 14.7817C14.2343 15.215 13.8924 15.7397 13.6757 16.3152C13.4624 16.867 13.3136 17.4965 13.273 18.4172C13.2289 19.3448 13.2188 19.6392 13.2188 21.9918C13.2188 24.3444 13.2289 24.6389 13.2695 25.563C13.3101 26.4837 13.4591 27.1167 13.6724 27.6652C13.8924 28.2474 14.2343 28.7686 14.6743 29.2019C15.1076 29.642 15.6323 29.9839 16.2078 30.2005C16.7595 30.4138 17.3891 30.5627 18.3099 30.6033C19.2339 30.644 19.5285 30.6541 21.8811 30.6541C24.2337 30.6541 24.5282 30.644 25.4523 30.6033C26.373 30.5627 27.006 30.4138 27.5543 30.2005C28.7189 29.7503 29.6396 28.8296 30.0898 27.6652C30.3029 27.1134 30.452 26.4837 30.4926 25.563C30.5332 24.6389 30.5433 24.3444 30.5433 21.9918C30.5433 19.6392 30.5399 19.3448 30.4993 18.4206ZM28.9389 25.4953C28.9016 26.3416 28.7595 26.7986 28.641 27.1032C28.3498 27.8581 27.7507 28.4572 26.9958 28.7484C26.6912 28.8669 26.2309 29.009 25.3879 29.0462C24.474 29.0869 24.1999 29.0969 21.8879 29.0969C19.5759 29.0969 19.2983 29.0869 18.3877 29.0462C17.5414 29.009 17.0844 28.8669 16.7798 28.7484C16.4041 28.6096 16.0622 28.3895 15.7846 28.1018C15.4969 27.8208 15.2769 27.4823 15.138 27.1067C15.0196 26.802 14.8774 26.3416 14.8403 25.4988C14.7995 24.5848 14.7895 24.3106 14.7895 21.9986C14.7895 19.6866 14.7995 19.409 14.8403 18.4985C14.8774 17.6523 15.0196 17.1953 15.138 16.8906C15.2769 16.5148 15.4969 16.173 15.7881 15.8954C16.0689 15.6076 16.4074 15.3876 16.7832 15.2489C17.0879 15.1304 17.5483 14.9883 18.3911 14.951C19.3051 14.9104 19.5793 14.9002 21.8912 14.9002C24.2066 14.9002 24.4807 14.9104 25.3914 14.951C26.2376 14.9883 26.6946 15.1304 26.9992 15.2489C27.3749 15.3876 27.7168 15.6076 27.9944 15.8954C28.2821 16.1763 28.5021 16.5148 28.641 16.8906C28.7595 17.1953 28.9016 17.6556 28.9389 18.4985C28.9795 19.4125 28.9897 19.6866 28.9897 21.9986C28.9897 24.3106 28.9795 24.5814 28.9389 25.4953Z" fill="#F1FAEE"/>
<path d="M21.8849 17.54C19.4275 17.54 17.4336 19.5338 17.4336 21.9913C17.4336 24.4489 19.4275 26.4427 21.8849 26.4427C24.3425 26.4427 26.3362 24.4489 26.3362 21.9913C26.3362 19.5338 24.3425 17.54 21.8849 17.54ZM21.8849 24.8788C20.2906 24.8788 18.9974 23.5857 18.9974 21.9913C18.9974 20.3969 20.2906 19.1039 21.8849 19.1039C23.4793 19.1039 24.7724 20.3969 24.7724 21.9913C24.7724 23.5857 23.4793 24.8788 21.8849 24.8788Z" fill="#F1FAEE"/>
<path d="M27.5511 17.3644C27.5511 17.9382 27.0858 18.4035 26.5118 18.4035C25.938 18.4035 25.4727 17.9382 25.4727 17.3644C25.4727 16.7904 25.938 16.3252 26.5118 16.3252C27.0858 16.3252 27.5511 16.7904 27.5511 17.3644Z" fill="#F1FAEE"/>
</g>
<defs>
<clipPath id="clip0_210_891">
<rect width="17.3279" height="17.3279" fill="white" transform="translate(13.1875 13.3262)"/>
</clipPath>
</defs>
</svg>
