<svg width="38" height="39" viewBox="0 0 38 39" fill="none" xmlns="http://www.w3.org/2000/svg">
<g id="Idea" clip-path="url(#clip0_507_8838)">
<g id="Group">
<path id="Vector" d="M20.5934 35.521H18.8809V36.9978L19.613 38.0673H19.9302C20.4341 37.7873 20.7772 37.2493 20.7772 36.6348V35.693L20.5934 35.521Z" fill="#5291D9"/>
<path id="Vector_2" d="M19.0833 36.6348V35.693L19.2895 35.521H17.7082L17.502 35.693V36.6348C17.5019 37.5355 18.2389 38.2725 19.1396 38.2725C19.4259 38.2725 19.6955 38.1978 19.9302 38.0674C19.4263 37.7873 19.0833 37.2493 19.0833 36.6348Z" fill="#0972D0"/>
<path id="Vector_3" d="M21.8351 33.2743L22.2317 33.0985V30.5176L21.8972 30.2959H16.3872L16.0488 30.5176V33.0985L16.3624 33.2743H21.8351Z" fill="#DBEDFF"/>
<path id="Vector_4" d="M19.1403 30.5176L19.4786 30.2959H16.3872L16.0488 30.5176V33.0985L16.3624 33.2743H19.4538L19.1403 33.0985V30.5176Z" fill="#B5DCFF"/>
<path id="Vector_5" d="M19.1408 33.0989L19 33.2809V34.5343L19.3164 35.192L19.8004 35.5829L20.2787 35.6952H20.7324C21.5573 35.6952 22.2322 35.0202 22.2322 34.1954V33.0989H19.1408Z" fill="#B5DCFF"/>
<path id="Vector_6" d="M19.1403 34.1951V33.0986H16.0488V34.1951C16.0488 35.02 16.7237 35.6949 17.5486 35.6949H20.6401C19.8152 35.695 19.1403 35.0201 19.1403 34.1951Z" fill="#8BCAFF"/>
<g id="Group_2">
<path id="Vector_7" d="M33.8821 16.5648H31.5721C31.2636 16.5648 31.0137 16.3148 31.0137 16.0064C31.0137 15.698 31.2637 15.448 31.5721 15.448H33.8821C34.1906 15.448 34.4406 15.698 34.4406 16.0064C34.4406 16.3148 34.1906 16.5648 33.8821 16.5648Z" fill="#FFE02F"/>
</g>
<g id="Group_3">
<path id="Vector_8" d="M6.7102 16.5651H4.4002C4.09176 16.5651 3.8418 16.315 3.8418 16.0066C3.8418 15.6982 4.09184 15.4482 4.4002 15.4482H6.71027C7.01871 15.4482 7.26868 15.6983 7.26868 16.0066C7.26868 16.315 7.01864 16.5651 6.7102 16.5651Z" fill="#FFE02F"/>
</g>
<g id="Group_4">
<path id="Vector_9" d="M27.9296 7.77494C27.7866 7.77494 27.6437 7.72043 27.5347 7.6114C27.3166 7.39335 27.3166 7.03972 27.5347 6.82167L29.1682 5.1882C29.3862 4.97015 29.7398 4.97015 29.9579 5.1882C30.176 5.40625 30.176 5.75988 29.9579 5.97793L28.3244 7.6114C28.2154 7.72035 28.0725 7.77494 27.9296 7.77494Z" fill="#FFE02F"/>
</g>
<g id="Group_5">
<path id="Vector_10" d="M8.71856 26.9883C8.57564 26.9883 8.43272 26.9338 8.32369 26.8248C8.10564 26.6067 8.10564 26.2531 8.32369 26.035L9.95716 24.4016C10.1752 24.1835 10.5288 24.1835 10.7469 24.4016C10.965 24.6196 10.965 24.9733 10.7469 25.1913L9.11343 26.8248C9.0044 26.9337 8.86148 26.9883 8.71856 26.9883Z" fill="#FFE02F"/>
</g>
<g id="Group_6">
<path id="Vector_11" d="M19.1404 4.13472C18.832 4.13472 18.582 3.88468 18.582 3.57631V1.26617C18.582 0.957803 18.832 0.707764 19.1404 0.707764C19.4489 0.707764 19.6988 0.957803 19.6988 1.26617V3.57624C19.6988 3.88468 19.4489 4.13472 19.1404 4.13472Z" fill="#FFE02F"/>
</g>
<g id="Group_7">
<path id="Vector_12" d="M10.352 7.77494C10.2091 7.77494 10.0662 7.72043 9.95716 7.6114L8.32369 5.97793C8.10564 5.75988 8.10564 5.40625 8.32369 5.1882C8.54174 4.97015 8.89538 4.97015 9.11343 5.1882L10.7469 6.82167C10.965 7.03972 10.965 7.39335 10.7469 7.6114C10.6379 7.72035 10.495 7.77494 10.352 7.77494Z" fill="#FFE02F"/>
</g>
<g id="Group_8">
<path id="Vector_13" d="M29.563 26.9881C29.4201 26.9881 29.2772 26.9336 29.1682 26.8246L27.5347 25.1911C27.3166 24.9731 27.3166 24.6194 27.5347 24.4014C27.7527 24.1833 28.1064 24.1833 28.3244 24.4014L29.9579 26.0349C30.176 26.2529 30.176 26.6065 29.9579 26.8246C29.8489 26.9335 29.7059 26.9881 29.563 26.9881Z" fill="#FFE02F"/>
</g>
<path id="Vector_14" d="M20.7732 6.89673H19.3719L15.4862 9.22433L13.0488 12.3839V18.1594L14.3693 21.9444L17.4667 24.687L18.0003 25.99V29.3035L18.5091 30.2714L19.4358 30.6781H21.4961C22.4731 30.6781 23.2652 29.886 23.2652 28.909V26.8384C23.2652 25.403 23.9246 24.057 25.0312 23.1427C27.0851 21.4454 28.3941 18.879 28.3941 16.0064C28.3941 11.453 25.105 7.66812 20.7732 6.89673Z" fill="#FFE02F"/>
<path id="Vector_15" d="M18.2724 28.9086V26.8379C18.2724 25.4255 17.6525 24.076 16.5574 23.1841C14.4743 21.4873 13.1436 18.9024 13.1436 16.0062C13.1435 11.4658 16.4534 7.6694 20.7738 6.89639C20.2653 6.80585 19.7426 6.75626 19.2089 6.75244C14.0914 6.71554 9.88672 10.8886 9.88672 16.0062C9.88679 18.9024 11.2174 21.4873 13.3005 23.1841C14.3956 24.076 15.0155 25.4255 15.0155 26.8379V28.9086C15.0155 29.8857 15.8076 30.6777 16.7847 30.6777H20.0415C19.0645 30.6777 18.2724 29.8857 18.2724 28.9086Z" fill="#FBC700"/>
<g id="Group_9">
<path id="Vector_16" d="M22.5014 13.6409C22.4067 13.6409 22.3107 13.6167 22.2227 13.566L19.8028 12.1694C19.5357 12.0153 19.4441 11.6737 19.5983 11.4066C19.7525 11.1394 20.0939 11.0479 20.3612 11.2021L22.7811 12.5987C23.0482 12.7529 23.1398 13.0944 22.9855 13.3615C22.8822 13.5407 22.6944 13.6409 22.5014 13.6409Z" fill="#0972D0"/>
</g>
<g id="Group_10">
<path id="Vector_17" d="M23.3533 17.8924C23.0449 17.8924 22.7949 17.6424 22.7949 17.334V14.7342C22.7949 14.4257 23.045 14.1758 23.3533 14.1758C23.6618 14.1758 23.9118 14.4258 23.9118 14.7342V17.334C23.9117 17.6424 23.6617 17.8924 23.3533 17.8924Z" fill="#0972D0"/>
</g>
<g id="Group_11">
<path id="Vector_18" d="M20.0825 20.8869C19.8896 20.8869 19.7018 20.7868 19.5984 20.6076C19.4441 20.3406 19.5356 19.999 19.8027 19.8447L22.2065 18.4568C22.4736 18.3025 22.815 18.394 22.9693 18.6611C23.1236 18.9282 23.0321 19.2698 22.765 19.424L20.3612 20.812C20.2733 20.8628 20.1773 20.8869 20.0825 20.8869Z" fill="#0972D0"/>
</g>
<g id="Group_12">
<path id="Vector_19" d="M18.2907 20.9393C18.1959 20.9393 18.0999 20.9151 18.0119 20.8644L15.5176 19.424C15.2505 19.2698 15.1589 18.9282 15.3132 18.6611C15.4675 18.394 15.8091 18.3026 16.0761 18.4568L18.5705 19.8971C18.8376 20.0514 18.9291 20.393 18.7748 20.66C18.6714 20.839 18.4836 20.9393 18.2907 20.9393Z" fill="#0972D0"/>
</g>
<g id="Group_13">
<path id="Vector_20" d="M14.9295 17.9238C14.6211 17.9238 14.3711 17.6737 14.3711 17.3653V14.66C14.3711 14.3515 14.6211 14.1016 14.9295 14.1016C15.2379 14.1016 15.4879 14.3516 15.4879 14.66V17.3653C15.4879 17.6737 15.2379 17.9238 14.9295 17.9238Z" fill="#0972D0"/>
</g>
<g id="Group_14">
<path id="Vector_21" d="M15.7974 13.6306C15.6044 13.6306 15.4168 13.5305 15.3133 13.3514C15.159 13.0843 15.2504 12.7428 15.5175 12.5885L17.9461 11.1853C18.2131 11.0311 18.5547 11.1225 18.709 11.3895C18.8633 11.6566 18.7719 11.9981 18.5048 12.1524L16.0762 13.5556C15.9883 13.6064 15.8922 13.6306 15.7974 13.6306Z" fill="#0972D0"/>
</g>
<g id="Group_15">
<g id="Group_16">
<path id="Vector_22" d="M19.8509 9.93237H19.4969L19.041 10.5972V11.7194L19.4531 12.2981L19.8509 12.367C20.2711 12.1237 20.5545 11.6702 20.5545 11.1497C20.5545 10.6292 20.2711 10.1758 19.8509 9.93237Z" fill="#5291D9"/>
<path id="Vector_23" d="M19.1474 11.1496C19.1474 10.629 19.4307 10.1757 19.8509 9.93224C19.6438 9.81228 19.4039 9.74243 19.1474 9.74243C18.3702 9.74243 17.7402 10.3724 17.7402 11.1496C17.7402 11.9267 18.3702 12.5567 19.1474 12.5567C19.4039 12.5567 19.6438 12.4869 19.8509 12.3669C19.4307 12.1235 19.1474 11.6701 19.1474 11.1496Z" fill="#0067C7"/>
</g>
<g id="Group_17">
<path id="Vector_24" d="M19.8509 19.6602H19.4969L19.041 20.3249V21.4472L19.4531 22.0258L19.8509 22.0948C20.2711 21.8514 20.5545 21.398 20.5545 20.8775C20.5545 20.357 20.2711 19.9036 19.8509 19.6602Z" fill="#5291D9"/>
<path id="Vector_25" d="M19.1474 20.8776C19.1474 20.357 19.4307 19.9037 19.8509 19.6603C19.6438 19.5403 19.4039 19.4705 19.1474 19.4705C18.3702 19.4705 17.7402 20.1005 17.7402 20.8776C17.7402 21.6547 18.3702 22.2847 19.1474 22.2847C19.4039 22.2847 19.6438 22.2149 19.8509 22.0949C19.4307 21.8515 19.1474 21.3981 19.1474 20.8776Z" fill="#0067C7"/>
</g>
<g id="Group_18">
<path id="Vector_26" d="M24.0619 17.2139H23.7079L23.252 17.8787V19.0009L23.6641 19.5796L24.0619 19.6485C24.482 19.4052 24.7655 18.9517 24.7655 18.4312C24.7655 17.9106 24.482 17.4572 24.0619 17.2139Z" fill="#5291D9"/>
<path id="Vector_27" d="M23.3583 18.4311C23.3583 17.9105 23.6416 17.4572 24.0618 17.2137C23.8547 17.0938 23.6149 17.0239 23.3583 17.0239C22.5812 17.0239 21.9512 17.6539 21.9512 18.4311C21.9512 19.2082 22.5811 19.8382 23.3583 19.8382C23.6149 19.8382 23.8547 19.7684 24.0618 19.6484C23.6416 19.405 23.3583 18.9516 23.3583 18.4311Z" fill="#0067C7"/>
</g>
<g id="Group_19">
<path id="Vector_28" d="M15.6263 17.2139H15.2723L14.8164 17.8787V19.0009L15.2285 19.5796L15.6263 19.6485C16.0465 19.4052 16.3299 18.9517 16.3299 18.4312C16.3299 17.9106 16.0465 17.4572 15.6263 17.2139Z" fill="#5291D9"/>
<path id="Vector_29" d="M14.9208 18.4313C14.9208 17.9108 15.2041 17.4574 15.6243 17.214C15.4172 17.094 15.1774 17.0242 14.9208 17.0242C14.1437 17.0242 13.5137 17.6542 13.5137 18.4313C13.5137 19.2084 14.1437 19.8384 14.9208 19.8384C15.1774 19.8384 15.4172 19.7687 15.6243 19.6486C15.2042 19.4053 14.9208 18.9518 14.9208 18.4313Z" fill="#0067C7"/>
</g>
<g id="Group_20">
<path id="Vector_30" d="M24.0619 12.3511H23.7079L23.252 13.0159V14.1381L23.6641 14.7168L24.0619 14.7857C24.482 14.5424 24.7655 14.0889 24.7655 13.5684C24.7655 13.0479 24.482 12.5944 24.0619 12.3511Z" fill="#5291D9"/>
<path id="Vector_31" d="M23.3583 13.5683C23.3583 13.0477 23.6416 12.5944 24.0618 12.3509C23.8547 12.231 23.6149 12.1611 23.3583 12.1611C22.5812 12.1611 21.9512 12.7911 21.9512 13.5683C21.9512 14.3454 22.5811 14.9754 23.3583 14.9754C23.6149 14.9754 23.8547 14.9056 24.0618 14.7856C23.6416 14.5422 23.3583 14.0888 23.3583 13.5683Z" fill="#0067C7"/>
</g>
<g id="Group_21">
<path id="Vector_32" d="M15.6263 12.3508H15.2723L14.8164 13.0156V14.1379L15.2285 14.7165L15.6263 14.7855C16.0465 14.5421 16.3299 14.0887 16.3299 13.5682C16.3299 13.0476 16.0465 12.5942 15.6263 12.3508Z" fill="#5291D9"/>
<path id="Vector_33" d="M14.9208 13.568C14.9208 13.0475 15.2041 12.5941 15.6243 12.3507C15.4172 12.2307 15.1774 12.1609 14.9208 12.1609C14.1437 12.1609 13.5137 12.7909 13.5137 13.568C13.5137 14.3451 14.1437 14.9751 14.9208 14.9751C15.1774 14.9751 15.4172 14.9054 15.6243 14.7853C15.2042 14.5419 14.9208 14.0886 14.9208 13.568Z" fill="#0067C7"/>
</g>
</g>
</g>
</g>
<defs>
<clipPath id="clip0_507_8838">
<rect width="37.5645" height="37.5645" fill="white" transform="translate(0.359375 0.708008)"/>
</clipPath>
</defs>
</svg>
