<svg width="24" height="24" viewBox="0 0 24 24" fill="none" xmlns="http://www.w3.org/2000/svg">
<g id="Icon" clip-path="url(#clip0_551_10455)">
<path id="Vector" d="M23.2808 7.15229C23.2263 5.91617 23.0264 5.06634 22.7401 4.32995C22.4447 3.5483 21.9902 2.84848 21.3948 2.26673C20.813 1.67591 20.1086 1.21683 19.336 0.926036C18.5953 0.639684 17.75 0.439787 16.5138 0.385286C15.2685 0.32617 14.8731 0.3125 11.7145 0.3125C8.55597 0.3125 8.16061 0.32617 6.91987 0.380671C5.68374 0.435172 4.83392 0.635246 4.09771 0.92142C3.31588 1.21683 2.61606 1.6713 2.0343 2.26673C1.44349 2.84848 0.984582 3.55292 0.693614 4.32552C0.407262 5.06634 0.207366 5.91155 0.152865 7.14768C0.0937478 8.39303 0.0800781 8.78839 0.0800781 11.947C0.0800781 15.1055 0.0937478 15.5009 0.148249 16.7416C0.20275 17.9778 0.402824 18.8276 0.689176 19.564C0.984582 20.3456 1.44349 21.0454 2.0343 21.6272C2.61606 22.218 3.32049 22.6771 4.0931 22.9679C4.83392 23.2542 5.67913 23.4541 6.91543 23.5086C8.156 23.5633 8.55153 23.5768 11.7101 23.5768C14.8687 23.5768 15.264 23.5633 16.5048 23.5086C17.7409 23.4541 18.5907 23.2542 19.3269 22.9679C20.8904 22.3634 22.1266 21.1273 22.731 19.564C23.0172 18.8231 23.2173 17.9778 23.2718 16.7416C23.3263 15.5009 23.34 15.1055 23.34 11.947C23.34 8.78839 23.3353 8.39303 23.2808 7.15229ZM21.1858 16.6507C21.1358 17.7869 20.9449 18.4005 20.7859 18.8095C20.3949 19.823 19.5906 20.6274 18.5771 21.0183C18.168 21.1773 17.5501 21.3682 16.4183 21.4181C15.1912 21.4728 14.8232 21.4862 11.7192 21.4862C8.61508 21.4862 8.24245 21.4728 7.01982 21.4181C5.88364 21.3682 5.2701 21.1773 4.86108 21.0183C4.35672 20.8319 3.89764 20.5365 3.52501 20.1502C3.13871 19.7729 2.8433 19.3185 2.65689 18.8141C2.49783 18.4051 2.30699 17.7869 2.2571 16.6554C2.20242 15.4283 2.18893 15.0601 2.18893 11.956C2.18893 8.85194 2.20242 8.47931 2.2571 7.25686C2.30699 6.12068 2.49783 5.50714 2.65689 5.09812C2.8433 4.59358 3.13871 4.13467 3.52962 3.76187C3.90669 3.37557 4.36116 3.08016 4.8657 2.89393C5.27472 2.73487 5.89287 2.54402 7.02444 2.49396C8.25151 2.43946 8.6197 2.42579 11.7236 2.42579C14.8323 2.42579 15.2003 2.43946 16.4229 2.49396C17.5591 2.54402 18.1727 2.73487 18.5817 2.89393C19.086 3.08016 19.5451 3.37557 19.9177 3.76187C20.3041 4.13911 20.5995 4.59358 20.7859 5.09812C20.9449 5.50714 21.1358 6.12512 21.1858 7.25686C21.2403 8.48393 21.254 8.85194 21.254 11.956C21.254 15.0601 21.2403 15.4237 21.1858 16.6507Z" fill="#1C1C1E"/>
<path id="Vector_2" d="M11.7156 5.96875C8.4162 5.96875 5.73926 8.64552 5.73926 11.945C5.73926 15.2446 8.4162 17.9213 11.7156 17.9213C15.0151 17.9213 17.6919 15.2446 17.6919 11.945C17.6919 8.64552 15.0151 5.96875 11.7156 5.96875ZM11.7156 15.8217C9.5751 15.8217 7.83888 14.0857 7.83888 11.945C7.83888 9.80442 9.5751 8.06837 11.7156 8.06837C13.8562 8.06837 15.5922 9.80442 15.5922 11.945C15.5922 14.0857 13.8562 15.8217 11.7156 15.8217Z" fill="#1C1C1E"/>
<path id="Vector_3" d="M19.3228 5.73211C19.3228 6.50258 18.6981 7.1273 17.9274 7.1273C17.1569 7.1273 16.5322 6.50258 16.5322 5.73211C16.5322 4.96146 17.1569 4.33691 17.9274 4.33691C18.6981 4.33691 19.3228 4.96146 19.3228 5.73211Z" fill="#1C1C1E"/>
</g>
<defs>
<clipPath id="clip0_551_10455">
<rect width="23.2644" height="23.2644" fill="white" transform="translate(0.0390625 0.3125)"/>
</clipPath>
</defs>
</svg>
