<svg width="25" height="24" viewBox="0 0 25 24" fill="none" xmlns="http://www.w3.org/2000/svg">
<g id="Icon">
<path id="Vector" d="M21.7709 21.2491V14.4326C21.7709 11.0825 21.0497 8.52344 17.1412 8.52344C15.2568 8.52344 14.0005 9.54707 13.4887 10.5242H13.4422V8.82587H9.74316V21.2491H13.6051V15.084C13.6051 13.4555 13.9075 11.8968 15.9082 11.8968C17.8857 11.8968 17.909 13.7347 17.909 15.1771V21.2258H21.7709V21.2491Z" fill="#1C1C1E"/>
<path id="Vector_2" d="M3.46094 8.82617H7.32282V21.2494H3.46094V8.82617Z" fill="#1C1C1E"/>
<path id="Vector_3" d="M5.39158 2.63867C4.15857 2.63867 3.1582 3.63904 3.1582 4.87205C3.1582 6.10506 4.15857 7.1287 5.39158 7.1287C6.6246 7.1287 7.62496 6.10506 7.62496 4.87205C7.62496 3.63904 6.6246 2.63867 5.39158 2.63867Z" fill="#1C1C1E"/>
</g>
</svg>
