<svg width="43" height="44" viewBox="0 0 43 44" fill="none" xmlns="http://www.w3.org/2000/svg">
<circle opacity="0.29" cx="21.3055" cy="21.9891" r="20.6973" fill="black" stroke="white" stroke-width="0.962663"/>
<path d="M28.2359 28.9217V23.8447C28.2359 21.3494 27.6987 19.4434 24.7876 19.4434C23.3841 19.4434 22.4484 20.2058 22.0671 20.9336H22.0325V19.6686H19.2773V28.9217H22.1538V24.3298C22.1538 23.1169 22.379 21.9559 23.8692 21.9559C25.3421 21.9559 25.3595 23.3248 25.3595 24.3991V28.9044H28.2359V28.9217Z" fill="#F1FAEE"/>
<path d="M14.5996 19.668H17.476V28.9211H14.5996V19.668Z" fill="#F1FAEE"/>
<path d="M16.0385 15.0596C15.1201 15.0596 14.375 15.8047 14.375 16.7231C14.375 17.6414 15.1201 18.4039 16.0385 18.4039C16.9569 18.4039 17.702 17.6414 17.702 16.7231C17.702 15.8047 16.9569 15.0596 16.0385 15.0596Z" fill="#F1FAEE"/>
</svg>
