<svg width="205" height="71" viewBox="0 0 205 71" fill="none" xmlns="http://www.w3.org/2000/svg">
<path d="M4.01475 22.8811H11.1294V54.6025H4.01475V22.8811ZM25.5195 54.6025L13.6466 22.8811H21.2144L27.7853 41.5968C28.4197 43.4094 28.9635 45.2221 28.9635 45.8565H29.1448C29.1448 45.2221 29.6886 43.4094 30.323 41.5968L36.8938 22.8811H44.2804L32.4528 54.6025H25.5195ZM67.567 22.8811H75.5426L63.5791 40.1466V54.6025H56.4645V40.1466L44.2744 22.8811H52.5219L60.0444 33.5305L67.567 22.8811Z" fill="white"/>
<path d="M128.53 55.1917C119.013 55.1917 112.261 48.5302 112.261 38.7418C112.261 28.9535 119.013 22.292 128.53 22.292C138.091 22.292 144.798 28.9535 144.798 38.7418C144.798 48.5302 138.091 55.1917 128.53 55.1917ZM128.53 48.7567C133.696 48.7567 137.366 44.9955 137.366 38.7418C137.366 32.4882 133.696 28.7269 128.53 28.7269C123.364 28.7269 119.693 32.4882 119.693 38.7418C119.693 44.9955 123.364 48.7567 128.53 48.7567ZM170.06 48.3489V54.6025H148.671V22.8811H155.785V48.3489H170.06ZM186.15 54.6025H173.189V22.8811H186.15C195.258 22.8811 201.874 29.1801 201.874 38.7418C201.874 48.3036 195.258 54.6025 186.15 54.6025ZM185.697 29.1348H180.304V48.3489H185.697C191.588 48.3489 194.443 44.633 194.443 38.7418C194.443 32.8507 191.588 29.1348 185.697 29.1348Z" fill="white"/>
<path d="M90.1103 0.720703L80.041 10.6101V55.0894H90.1217V34.8325H98.0524V55.0894H108.468V24.0352L98.0524 13.6201V28.6217L90.1974 28.6217L90.1103 0.720703Z" fill="white"/>
</svg>
