<svg width="66" height="66" viewBox="0 0 66 66" fill="none" xmlns="http://www.w3.org/2000/svg">
<g id="Icon">
<g id="Group 1834">
<mask id="mask0_551_10733" style="mask-type:luminance" maskUnits="userSpaceOnUse" x="8" y="8" width="50" height="50">
<g id="a">
<path id="Vector" d="M56.9471 56.9661V9.14468H9.12573V56.9661H56.9471Z" fill="white" stroke="white" stroke-width="1.29247"/>
</g>
</mask>
<g mask="url(#mask0_551_10733)">
<g id="Group">
<path id="Vector_2" d="M35.8644 28.5332C35.8644 30.9349 34.3906 32.7334 32.6258 32.7334C30.8613 32.7334 29.3008 30.9598 29.3008 28.5581C29.3008 26.1566 30.948 24.5563 32.7127 24.5563C34.4772 24.5563 35.8644 26.1316 35.8644 28.5332Z" stroke="#1C1C1E" stroke-width="1.29247" stroke-miterlimit="10" stroke-linecap="round" stroke-linejoin="round"/>
<path id="Vector_3" d="M32.8662 36.7979C29.3564 36.7008 26.1561 34.3253 25.2059 30.712C24.1091 26.5416 26.508 22.1857 30.617 20.8777C34.963 19.4942 39.585 21.9392 40.8981 26.29C41.3628 28.0308 41.0916 29.5454 40.4759 31.0935C40.2317 31.7075 39.4266 33.1445 37.6356 33.1445C36.6577 33.1445 35.8426 32.2074 35.8479 31.1282L35.8833 23.9758" stroke="#1C1C1E" stroke-width="1.29247" stroke-miterlimit="10" stroke-linecap="round" stroke-linejoin="round"/>
<path id="Vector_4" d="M40.8988 26.2902C41.3635 28.031 41.0923 29.5456 40.4766 31.0938" stroke="#1C1C1E" stroke-width="1.29247" stroke-miterlimit="10" stroke-linecap="round" stroke-linejoin="round"/>
<path id="Vector_5" d="M39.9724 15.6953L33.037 9.93978L26.1016 15.6953" stroke="#1C1C1E" stroke-width="1.29247" stroke-miterlimit="10" stroke-linecap="round" stroke-linejoin="round"/>
<path id="Vector_6" d="M16.7297 23.4728L9.91895 29.1248V56.1758H56.155V29.1248L49.3443 23.4728" stroke="#1C1C1E" stroke-width="1.29247" stroke-miterlimit="10" stroke-linecap="round" stroke-linejoin="round"/>
<path id="Vector_7" d="M33.0368 43.5146L49.3442 33.3649V15.6963H16.7295V33.3649L33.0368 43.5146Z" stroke="#1C1C1E" stroke-width="1.29247" stroke-miterlimit="10" stroke-linecap="round" stroke-linejoin="round"/>
<path id="Vector_8" d="M56.155 29.1248L33.037 43.5136L9.91895 29.1248V56.1758H56.155V29.1248Z" stroke="#1C1C1E" stroke-width="1.29247" stroke-miterlimit="10" stroke-linecap="round" stroke-linejoin="round"/>
</g>
</g>
</g>
</g>
</svg>
