<svg width="66" height="66" viewBox="0 0 66 66" fill="none" xmlns="http://www.w3.org/2000/svg">
<g id="Icon">
<g id="Group">
<path id="Vector" fill-rule="evenodd" clip-rule="evenodd" d="M10.1097 23.2321L14.1333 19.208C14.6943 18.6468 15.397 18.3837 16.1885 18.4383C16.9801 18.4928 17.6401 18.85 18.1188 19.4827L24.0768 27.3577C24.8799 28.4193 24.7788 29.8883 23.8375 30.8296L21.0489 33.6185C25.3399 37.2667 28.9277 40.8562 32.5753 45.147L35.3644 42.3575C36.3057 41.4161 37.7745 41.315 38.8359 42.1183L46.7099 48.077C47.3424 48.5557 47.6996 49.2158 47.7542 50.0074C47.8087 50.7991 47.5455 51.502 46.9845 52.063L42.9603 56.0878C33.6941 65.3554 0.843229 32.4998 10.1097 23.2321ZM44.4794 8.60449C51.7218 8.60449 57.5928 14.0932 57.5928 20.864C57.5928 27.6348 51.7218 33.1235 44.4794 33.1235C41.9925 33.1235 39.6673 32.4763 37.6859 31.3521C36.0726 32.0663 34.3414 32.2728 32.6847 32.0278C33.3051 30.8535 33.7673 29.6022 34.0593 28.3065C32.3703 26.2428 31.3661 23.6632 31.3661 20.864C31.3661 14.0932 37.2371 8.60449 44.4794 8.60449Z" stroke="#1C1C1E" stroke-width="1.29247" stroke-miterlimit="22.9256" stroke-linecap="round" stroke-linejoin="round"/>
<path id="Vector_2" d="M44.4498 26.7696V19.5049H42.7952M42.7178 26.8435H46.1819M44.4498 14.7178V14.7553" stroke="#1C1C1E" stroke-width="1.29247" stroke-miterlimit="22.9256" stroke-linecap="round" stroke-linejoin="round"/>
</g>
</g>
</svg>
