<svg width="38" height="39" viewBox="0 0 38 39" fill="none" xmlns="http://www.w3.org/2000/svg">
<g id="Popularity" clip-path="url(#clip0_507_7195)">
<g id="Group">
<path id="Vector" d="M13.2621 34.6283L11.9466 34.0863L8.88558 32.86C8.06168 33.811 6.58546 33.8242 5.76187 32.8728L2.63182 34.2214C1.92333 34.5134 1.46094 35.2039 1.46094 35.9702V37.6055C1.46094 38.0234 1.79969 38.362 2.21749 38.362L2.36751 38.4376H5.7618L7.36129 38.2663L8.88633 38.4376H11.6775L13.2621 38.2181V34.6283Z" fill="#CCF49F"/>
<path id="Vector_2" d="M5.76139 32.8253L5.87023 35.6316L5.76139 38.4379L2.70117 34.0867L4.19961 33.5819L5.76139 32.8253Z" fill="#B3E59F"/>
<path id="Vector_3" d="M5.9773 33.7981L2.92842 35.055C2.5868 35.1956 2.36535 35.5251 2.36535 35.8947V38.438H2.13936C1.72216 38.438 1.38281 38.0994 1.38281 37.6814V35.8947C1.38281 35.1291 1.84536 34.4383 2.5543 34.1466L2.69941 34.0868L3.7734 33.7255L5.7597 32.8254V33.582L5.76046 33.5827C5.8284 33.6614 5.90096 33.7332 5.9773 33.7981Z" fill="#B3E59F"/>
<path id="Vector_4" d="M5.76139 32.8253L5.90416 33.2558L5.76139 33.888L3.28087 34.9106L2.70117 34.0867L5.76139 32.8253Z" fill="#95D6A4"/>
<path id="Vector_5" d="M19.9992 1.40117L21.3212 4.07994C21.4588 4.35875 21.7248 4.55201 22.0325 4.59675L24.9887 5.02634C25.7636 5.13896 26.073 6.09119 25.5123 6.6377L23.3731 8.72287C23.1505 8.93993 23.0489 9.25261 23.1014 9.55901L23.6064 12.5033C23.6368 12.6807 23.6184 12.8488 23.562 12.9976C23.3734 13.4956 22.7346 13.6878 22.2008 13.4071L19.5917 12.0129C19.3165 11.8683 18.9878 11.8683 18.7125 12.0129L16.1368 13.4216C15.4437 13.7859 14.6337 13.1974 14.766 12.4257L15.2732 9.56218C15.3257 9.2557 15.2241 8.94303 15.0015 8.72604L12.895 6.63876C12.4563 6.21113 12.447 5.53409 12.8798 5.2063C13.0001 5.11515 13.1467 5.05091 13.3153 5.02642L16.2715 4.59683C16.5792 4.55208 16.8452 4.35883 16.9828 4.08001L18.3048 1.40124C18.6514 0.69911 19.6526 0.69911 19.9992 1.40117Z" fill="#FFD163"/>
<path id="Vector_6" d="M23.5663 12.9977C23.3766 13.4957 22.7735 13.7799 22.2399 13.4995L19.5961 12.1089C19.321 11.9645 18.9915 11.9645 18.7164 12.1089L16.0726 13.4995C15.3795 13.8638 14.5693 13.2751 14.7016 12.5034L15.2064 9.55881C15.2593 9.25271 15.1581 8.93981 14.9351 8.7229L12.7962 6.63765C12.3578 6.20987 12.4508 5.53419 12.8839 5.20618L15.6735 7.96483C16.1459 8.42511 16.3613 9.08794 16.2494 9.73793L15.8614 12.003C15.8297 12.1882 16.0241 12.3294 16.1904 12.242L18.2243 11.1724C18.5108 11.022 18.8327 10.9427 19.1562 10.9427C19.4797 10.9427 19.8017 11.022 20.0881 11.1724L23.5663 12.9977Z" fill="#FFB65F"/>
<g id="Group_2">
<path id="Vector_7" d="M31.515 7.93926L32.4594 9.85286C32.5577 10.052 32.7477 10.1901 32.9675 10.222L35.0794 10.5288C35.6329 10.6093 35.8539 11.2895 35.4534 11.6799L33.9253 13.1694C33.7663 13.3245 33.6936 13.5479 33.7312 13.7668L34.0919 15.8701C34.1865 16.4213 33.5934 16.785 33.0983 16.5248L31.184 15.5053C30.9874 15.4019 30.7525 15.4019 30.5559 15.5053L28.7708 16.5014C28.2757 16.7617 27.6971 16.3412 27.7917 15.7899L28.1691 13.7436C28.2066 13.5247 28.134 13.3013 27.975 13.1463L26.5213 11.7039C26.1263 11.3189 26.1808 10.6281 26.7176 10.5326C26.7251 10.5313 26.7327 10.5301 26.7404 10.5289L28.8522 10.2221C29.072 10.1901 29.262 10.0521 29.3603 9.85294L30.3048 7.93934C30.5522 7.43771 31.2674 7.43771 31.515 7.93926Z" fill="#FFD163"/>
<path id="Vector_8" d="M33.1149 16.5811L31.2261 15.5887C31.0296 15.4852 30.7946 15.4852 30.5981 15.5887L28.7093 16.5811C28.2143 16.8418 27.6353 16.4216 27.7298 15.8699L28.0911 13.7665C28.1281 13.5481 28.0556 13.3244 27.8969 13.1694L26.3686 11.6797C25.9733 11.295 26.1835 10.6284 26.7201 10.5332L28.6353 12.4121C29.0442 12.8097 29.2301 13.3833 29.1341 13.9456L28.9562 14.9814C28.9349 15.1049 29.0646 15.1991 29.1755 15.1408L30.106 14.6516C30.3539 14.5216 30.6321 14.4528 30.9125 14.4528C31.1921 14.4528 31.471 14.5216 31.7189 14.6516L34.0951 15.876C34.1843 16.4246 33.6084 16.8411 33.1149 16.5811Z" fill="#FFB65F"/>
</g>
<g id="Group_3">
<path id="Vector_9" d="M7.92324 7.93926L8.86769 9.85286C8.96601 10.052 9.15602 10.1901 9.37581 10.222L11.4877 10.5288C12.0412 10.6093 12.2622 11.2895 11.8617 11.6799L10.3336 13.1694C10.1745 13.3245 10.1019 13.5479 10.1395 13.7668L10.5002 15.8701C10.5948 16.4213 10.0017 16.785 9.50656 16.5248L7.59228 15.5053C7.3957 15.4019 7.1608 15.4019 6.96421 15.5053L5.1791 16.5014C4.68405 16.7617 4.10541 16.3412 4.19996 15.7899L4.57733 13.7436C4.6149 13.5247 4.54226 13.3013 4.38324 13.1463L2.92947 11.7039C2.53449 11.3189 2.58898 10.6281 3.12583 10.5326C3.13331 10.5313 3.14094 10.5301 3.14858 10.5289L5.26042 10.2221C5.48021 10.1901 5.67021 10.0521 5.76854 9.85294L6.71299 7.93934C6.96043 7.43771 7.67572 7.43771 7.92324 7.93926Z" fill="#FFD163"/>
<path id="Vector_10" d="M9.52307 16.5816L7.63434 15.5892C7.43783 15.4857 7.20278 15.4857 7.00627 15.5892L5.11753 16.5816C4.62249 16.8423 4.04355 16.4221 4.13802 15.8704L4.49929 13.767C4.53633 13.5486 4.46377 13.3248 4.30505 13.1699L2.77683 11.6802C2.38155 11.2955 2.59166 10.6289 3.12828 10.5337L5.04347 12.4126C5.45235 12.8101 5.63828 13.3838 5.54229 13.9461L5.36438 14.9819C5.34314 15.1054 5.47276 15.1996 5.58371 15.1413L6.51425 14.6521C6.76215 14.5221 7.04028 14.4533 7.32068 14.4533C7.60033 14.4533 7.87921 14.5221 8.12711 14.6521L10.5033 15.8765C10.5925 16.4251 10.0166 16.8416 9.52307 16.5816Z" fill="#FFB65F"/>
</g>
<g id="Group_4">
<g id="Group_5">
<path id="Vector_11" d="M19.0919 9.83049C18.6197 9.83049 18.3241 9.7754 17.878 9.48404C17.6159 9.31277 17.5422 8.96156 17.7135 8.69945C17.8847 8.43726 18.236 8.3638 18.498 8.53483C18.7325 8.68796 18.8019 8.69869 19.1292 8.69665C19.4152 8.69476 19.529 8.47104 19.5512 8.33908C19.5924 8.0936 19.4001 8.02573 19.3369 8.00343C19.2373 7.96821 19.1426 7.9401 19.0511 7.91289C18.7209 7.81463 18.3794 7.71306 18.0781 7.35413C17.8353 7.06489 17.7402 6.64663 17.8236 6.23525C17.9134 5.79258 18.1892 5.42413 18.5802 5.22422C19.1959 4.90943 19.8289 5.13874 20.2161 5.45829C20.4575 5.65752 20.4918 6.01478 20.2926 6.25626C20.0933 6.49766 19.7361 6.53205 19.4945 6.33267C19.4853 6.32504 19.2663 6.14682 19.0961 6.23381C18.9886 6.28876 18.9502 6.39298 18.937 6.45027C18.915 6.54475 18.9365 6.61186 18.9467 6.62562C19.0212 6.71435 19.0943 6.74292 19.3743 6.82613C19.4744 6.85598 19.5878 6.88969 19.7144 6.93436C20.4046 7.1781 20.7883 7.81804 20.6692 8.5269C20.5432 9.2771 19.8988 9.82528 19.1369 9.83034C19.1217 9.83042 19.1067 9.83049 19.0919 9.83049Z" fill="#FFB65F"/>
</g>
<g id="Group_6">
<path id="Vector_12" d="M19.1567 10.5591C18.8436 10.5591 18.5898 10.3054 18.5898 9.99224V9.2635C18.5898 8.95038 18.8436 8.69666 19.1567 8.69666C19.4697 8.69666 19.7235 8.95038 19.7235 9.2635V9.99224C19.7235 10.3053 19.4697 10.5591 19.1567 10.5591Z" fill="#FFB65F"/>
</g>
<g id="Group_7">
<path id="Vector_13" d="M19.1567 6.20907C18.8436 6.20907 18.5898 5.95535 18.5898 5.64222V4.98665C18.5898 4.67352 18.8436 4.4198 19.1567 4.4198C19.4697 4.4198 19.7235 4.67352 19.7235 4.98665V5.64222C19.7235 5.95535 19.4697 6.20907 19.1567 6.20907Z" fill="#FFB65F"/>
</g>
</g>
<path id="Vector_14" d="M32.5164 32.825V32.3391L32.3402 31.6571L32.5164 29.6414H29.5063V32.825L28.5645 36.3431H33.4272L32.5164 32.825Z" fill="#E3A76F"/>
<path id="Vector_15" d="M35.7196 34.1462L32.5139 32.8253C32.5279 33.8356 32.1738 34.8158 31.5186 35.5833C31.5059 35.5981 31.5048 35.6469 31.4918 35.6617L30.9451 36.2937L30.416 35.6537C30.4069 35.6432 30.3938 35.5889 30.3847 35.5782C29.9545 35.0739 29.6541 34.4777 29.5028 33.8415C29.4265 33.5206 29.3541 33.2953 29.3561 32.9606L29.3562 32.9312L26.1819 34.2627C25.4734 34.5547 25.0137 35.1288 25.0137 35.8951V38.1993L26.6326 38.4381H30.385L30.9934 38.1446L31.5187 38.4381H36.1339C36.5517 38.4381 36.8904 38.0993 36.8904 37.6815V35.8951C36.8904 35.1287 36.4281 34.4381 35.7196 34.1462Z" fill="#D6CCF2"/>
<path id="Vector_16" d="M30.3744 29.6416H29.3919V32.3397V32.8249L29.1777 33.3166L29.5052 33.8408L30.1873 33.5596C30.3005 33.513 30.3744 33.4025 30.3744 33.2801V32.9453C30.3744 32.8518 30.4584 32.7815 30.5506 32.7969C30.684 32.8192 30.8184 32.8309 30.9533 32.8309C31.4899 32.8309 32.0198 32.6495 32.5156 32.3389V29.6415H30.3744V29.6416Z" fill="#D6995C"/>
<path id="Vector_17" d="M29.5039 33.8411L29.1131 34.0021L26.5593 35.0549C26.2169 35.1955 25.9962 35.525 25.9962 35.8946V38.4379L25.4746 38.0414L25.0137 38.4379V35.8946C25.0137 35.129 25.4762 34.4382 26.1844 34.1464L29.3905 32.8253V32.8548C29.3882 33.1896 29.4268 33.5207 29.5039 33.8411Z" fill="#C8B8F4"/>
<g id="Group_8">
<path id="Vector_18" d="M31.5204 35.5832V38.4378H30.3867V35.5779C30.3958 35.5885 30.4049 35.599 30.4139 35.6096L30.7833 36.0339C30.8734 36.1373 31.0341 36.1377 31.1247 36.0345L31.4819 35.6278C31.4947 35.6126 31.5076 35.5983 31.5204 35.5832Z" fill="#C8B8F4"/>
</g>
<path id="Vector_19" d="M11.9441 34.0867L8.88393 38.4379H8.88317L8.78711 35.8352L8.88317 33.5829L8.78711 33.288L8.88317 32.8253L11.9441 34.0867Z" fill="#B3E59F"/>
<path id="Vector_20" d="M25.2265 33.0607L21.1191 31.3683L21.1185 31.369C21.0281 31.4733 20.8289 31.4841 20.7272 31.5702C19.7715 32.3792 17.671 31.5188 17.671 31.5188L17.185 31.4191L13.2573 33.0802C12.4071 33.4305 11.8523 34.2592 11.8523 35.1787L11.8145 38.3048L12.6552 38.4376H18.5844L19.1858 38.223L19.7181 38.4376H26.6315V35.1594C26.6315 34.2398 26.0767 33.4111 25.2265 33.0607Z" fill="#DF646E"/>
<path id="Vector_21" d="M18.1102 32.0503L13.453 33.9692C12.9693 34.1688 12.6564 34.6358 12.6564 35.1588V38.4375H11.6738V35.1588C11.6738 34.2398 12.2286 33.4107 13.0789 33.0608L17.1858 31.3685L17.6721 31.5187L18.1102 32.0503Z" fill="#DC4955"/>
<g id="Group_9">
<path id="Vector_22" d="M24.0478 36.729H21.9067C21.5936 36.729 21.3398 36.4753 21.3398 36.1622C21.3398 35.8491 21.5936 35.5953 21.9067 35.5953H24.0478C24.3608 35.5953 24.6146 35.8491 24.6146 36.1622C24.6146 36.4753 24.3608 36.729 24.0478 36.729Z" fill="#F8F7F7"/>
</g>
<g id="Group_10">
<path id="Vector_23" d="M20.7829 31.6997V33.9195C20.7829 34.5113 20.312 34.9942 19.7255 35.0146V38.4376H18.5918V34.9768C18.5918 34.3858 19.0627 33.9021 19.6492 33.8824V32.2212L20.1612 31.8598L20.7829 31.6997Z" fill="#DC4955"/>
</g>
<path id="Vector_24" d="M21.1217 27.3585H17.1875L17.2941 31.2552C17.2941 31.2552 17.7688 31.9006 18.1117 32.0503C19.1171 32.4891 20.3467 32.2623 21.1205 31.3698L21.1217 31.3684V29.7022L20.9798 29.4091L21.1217 27.3585Z" fill="#F2D1A5"/>
<path id="Vector_25" d="M17.1875 27.3583V29.702V31.3685C17.285 31.4811 17.3901 31.5832 17.5004 31.6746C17.5556 31.72 17.6123 31.7631 17.6697 31.8031C17.8103 31.9006 17.9584 31.983 18.1118 32.0503V30.3234C18.1118 30.1812 18.2409 30.0761 18.3809 30.101C18.6299 30.1452 18.8877 30.1683 19.1541 30.1683C19.8744 30.1683 20.5327 30.0005 21.1222 29.702V27.3583H17.1875Z" fill="#F2BB88"/>
<path id="Vector_26" d="M23.5485 22.9455C23.5485 20.0985 21.9972 17.7906 19.1502 17.7906C16.3033 17.7906 14.752 20.0985 14.752 22.9455C14.752 25.7924 16.3033 29.1856 19.1502 29.1856C21.9972 29.1856 23.5485 25.7924 23.5485 22.9455Z" fill="#F2D1A5"/>
<path id="Vector_27" d="M21.9789 18.8316C21.8566 18.822 21.7349 18.8205 21.6156 18.8261C21.6156 18.8259 21.6155 18.8256 21.6155 18.8255C21.2618 18.8429 20.9285 18.9222 20.6579 19.0394L20.6543 19.0488C20.6296 18.7912 20.5544 18.5532 20.4241 18.3496C20.2944 18.147 20.1167 17.9796 19.9028 17.8482C19.663 17.8105 19.4122 17.7906 19.1502 17.7906C16.3033 17.7906 14.752 20.0985 14.752 22.9455C14.752 23.5357 14.88 24.411 15.0111 25.0131C15.1352 24.8464 15.4468 24.2491 15.7914 23.8966C16.3512 23.3241 16.7705 22.8293 17.9207 22.4107C18.5826 22.1698 19.1283 21.8785 19.5473 21.4563C19.6178 21.3851 19.7342 21.3999 19.7857 21.4859C20.1216 22.0471 20.9372 22.5915 21.2655 22.8016C22.2862 23.455 23.0346 24.4748 23.3362 24.817C23.4642 24.2216 23.5485 23.5288 23.5485 22.9455C23.5485 21.265 23.0075 19.7727 21.9789 18.8316Z" fill="#F2BB88"/>
<path id="Vector_28" d="M20.7094 18.0497C20.9801 17.9322 21.2655 17.7848 21.6191 17.7681C22.2583 17.7378 22.9631 17.9124 23.4807 18.4365C25.1861 20.1633 24.1103 22.891 23.5022 23.841C23.5022 23.841 22.6154 22.7321 21.2786 21.8764C20.9138 21.643 20.6046 21.3642 20.3602 21.063C20.1269 20.7755 20.0448 20.424 19.9375 20.1154L20.7094 18.0497Z" fill="#855B51"/>
<path id="Vector_29" d="M21.4544 19.3107C21.2344 19.9614 20.8558 20.5585 20.3592 21.0626C20.1257 20.7754 19.9518 20.467 19.8438 20.1587L20.66 17.9812C20.9306 17.8641 21.2639 17.7847 21.6176 17.7673C21.6864 18.2518 21.6335 18.7816 21.4544 19.3107Z" fill="#724D44"/>
<path id="Vector_30" d="M20.428 17.2913C20.1538 16.8629 19.6672 16.5901 19.0693 16.4886C18.0862 16.3216 16.8567 16.6988 15.7215 17.5285C13.4576 19.1831 14.0927 22.6479 14.8178 23.7807C14.8178 23.7807 15.0541 23.4969 15.5686 22.9845C16.1004 22.4548 16.9229 21.805 18.0731 21.3864C20.1977 20.613 21.1532 18.424 20.428 17.2913Z" fill="#855B51"/>
<path id="Vector_31" d="M19.0654 16.4888C18.3278 16.5977 17.5312 16.9113 16.7965 17.4479C14.9705 18.7819 15.0748 21.4196 15.5646 22.9849C15.0612 23.4913 14.8075 23.8969 14.8075 23.8969C14.0819 22.764 13.3992 19.1024 15.6628 17.4479C16.798 16.6181 18.0821 16.3225 19.0654 16.4888Z" fill="#724D44"/>
<path id="Vector_32" d="M8.78936 33.0756H5.79596L5.78069 33.7743L5.76172 33.8878V38.4377H8.88542V33.5828L8.78936 33.0756Z" fill="#F8F7F7"/>
<path id="Vector_33" d="M8.88234 30.3979H5.83398L5.83882 33.529C5.83882 33.529 5.89981 33.7327 5.976 33.7983C6.82204 34.5263 8.12563 34.4545 8.88143 33.5826L8.88241 33.5815V32.2877L8.81061 31.773L8.88234 30.3979Z" fill="#C48958"/>
<path id="Vector_34" d="M5.97939 33.7979L5.76172 33.8879V33.5818L5.76247 33.5825C5.79906 33.6249 5.86541 33.6271 5.90456 33.6654C5.93805 33.6983 5.94409 33.7679 5.97939 33.7979Z" fill="#E8E8E8"/>
<path id="Vector_35" d="M6.74425 30.3983H5.76172V32.2886V33.5817L5.76247 33.5825C5.8305 33.6611 5.90305 33.7329 5.97939 33.7979L6.55712 33.5598C6.67034 33.5132 6.74425 33.4028 6.74425 33.2803V32.9438C6.74425 32.8487 6.83072 32.7788 6.92428 32.7955C7.05428 32.8187 7.1873 32.8312 7.32312 32.8312C7.90055 32.8312 8.42658 32.6098 8.88535 32.2878V30.3983H6.74425Z" fill="#B27A49"/>
<path id="Vector_36" d="M7.62791 22.9512C7.62587 22.951 7.76222 22.9447 7.62791 22.9512C5.86509 22.9512 4.42258 23.6401 4.00742 25.0814C3.89027 25.4881 3.83057 25.9429 3.83057 26.4404C3.80978 27.7388 4.45614 29.213 4.983 29.9792C5.22123 30.3567 5.48372 30.6993 5.75807 30.9852C5.76268 30.99 5.76556 30.9931 5.76556 30.9931C5.76556 30.9931 5.76525 30.9927 5.76525 30.9926C6.27088 31.5173 6.81619 31.8487 7.32257 31.8487C8.88488 31.8487 10.8146 28.7007 10.8146 26.4404C10.8146 25.9193 10.7491 25.4451 10.6206 25.0239C10.2237 23.7227 9.15334 23.0624 7.62791 22.9512Z" fill="#C48958"/>
<path id="Vector_37" d="M10.6532 25.1487C10.0584 24.3581 9.07964 23.882 7.75397 23.7981C7.7517 23.7981 7.47433 23.7777 7.32015 23.7845C5.77227 23.7845 4.64463 24.275 3.98633 25.1502C4.38463 23.6673 5.52966 22.8019 7.32015 22.8019C7.45468 22.7951 7.69578 22.8155 7.69804 22.8155C9.27161 22.9304 10.2836 23.7739 10.6532 25.1487Z" fill="#B27A49"/>
<path id="Vector_38" d="M33.2224 21.451C33.2224 21.3315 33.286 21.1942 33.2688 21.0795C33.1231 20.1123 32.3859 19.3389 31.4373 19.1396C31.2812 19.1068 31.1196 19.1626 30.9537 19.1626C29.6605 19.1626 28.6973 20.1578 28.6973 21.451C28.6973 22.7441 29.6602 23.7726 30.9534 23.7726C32.2466 23.7726 33.2224 22.7441 33.2224 21.451Z" fill="#855B51"/>
<path id="Vector_39" d="M34.3979 26.8939C34.3979 24.6335 33.2149 22.8014 30.9545 22.8014C28.6941 22.8014 27.5137 24.6472 27.5137 26.9076C27.5137 27.2886 27.6514 27.4842 27.7501 27.8748C27.757 27.9022 27.6301 28.1139 27.6375 28.1412C28.147 30.0387 29.6749 31.8485 30.9546 31.8485C32.2665 31.8485 33.8375 29.9489 34.3074 28.0016C34.3364 27.8812 34.2137 27.7732 34.234 27.6529C34.2762 27.4018 34.3979 27.1388 34.3979 26.8939Z" fill="#E3A76F"/>
<path id="Vector_40" d="M33.2678 21.0794C32.6004 20.7151 31.8265 20.5254 30.9989 20.5254C30.6867 20.5254 30.3775 20.5531 30.0763 20.6065C29.9548 20.628 29.8567 20.5043 29.9114 20.3936C30.2181 19.7739 30.7908 19.3094 31.4811 19.1491C31.3118 19.1098 31.1342 19.0894 30.9528 19.0894C29.7746 19.0894 28.8002 19.9598 28.6363 21.0926C28.627 21.2173 28.6299 21.0043 28.6113 21.4308C28.6113 22.7612 29.7208 23.8324 31.0651 23.7696C32.3173 23.7111 33.3131 22.6483 33.294 21.3949C33.2924 21.288 33.2834 21.1828 33.2678 21.0794Z" fill="#724D44"/>
<path id="Vector_41" d="M34.3816 27.6404C34.3612 27.7605 34.3362 27.8815 34.3068 28.0016C33.4012 27.9369 32.5538 26.9929 31.8997 25.986C31.8479 25.9061 31.7368 25.8919 31.6681 25.958C30.6472 26.9413 29.1414 28.0879 27.6369 28.1415C27.6301 28.1142 27.6225 28.0863 27.6157 28.0591C27.5175 27.6691 27.5137 27.2889 27.5137 26.908C27.5137 24.6474 28.6942 22.8018 30.9541 22.8018C33.2146 22.8018 34.3975 24.6338 34.3975 26.8944C34.3975 27.1393 34.4239 27.3894 34.3816 27.6404Z" fill="#D6995C"/>
<path id="Vector_42" d="M33.2121 22.126C32.6996 21.7447 32.088 21.5296 31.4599 21.4588C31.425 21.4549 31.3732 21.4635 31.3381 21.4612C30.9134 21.4334 30.4918 21.5083 30.0825 21.5939C29.5576 21.7037 29.1513 21.938 28.743 22.2242C27.4867 23.1051 26.4743 25.2761 27.578 27.3251C27.8774 27.3251 28.1323 27.4069 28.433 27.3096C29.9256 26.8269 31.3452 25.3467 31.7943 24.8577C31.8642 24.7817 31.9874 24.7969 32.0374 24.8871C32.3703 25.4884 33.4646 27.3251 34.408 27.3251C35.4315 24.7972 34.1204 22.8017 33.2121 22.126Z" fill="#855B51"/>
<path id="Vector_43" d="M31.4684 21.4608C30.7965 21.5371 30.1549 21.7684 29.6447 22.1259C28.4195 22.9845 27.4514 25.2949 28.4271 27.3091C28.1263 27.4066 27.8225 27.4633 27.5232 27.4633C26.4197 25.4143 27.4053 23.0064 28.6622 22.1259C29.4187 21.5953 30.4655 21.3436 31.4684 21.4608Z" fill="#724D44"/>
</g>
</g>
<defs>
<clipPath id="clip0_507_7195">
<rect width="37.5631" height="37.5631" fill="white" transform="translate(0.359375 0.87439)"/>
</clipPath>
</defs>
</svg>
