<svg width="38" height="39" viewBox="0 0 38 39" fill="none" xmlns="http://www.w3.org/2000/svg">
<g id="Social care" clip-path="url(#clip0_507_8894)">
<g id="Group">
<path id="Vector" d="M35.2502 11.283H34.7329L33.4414 12.2285L32.3789 13.8583V18.7551L32.718 19.086L33.1943 19.2661H37.0031C37.5102 19.2661 37.9213 18.855 37.9213 18.3478V15.3786C37.9213 13.5577 36.8197 11.9816 35.2502 11.283Z" fill="#FF5CA8"/>
<path id="Vector_2" d="M18.9704 12.527C18.4991 11.959 17.8909 11.5083 17.1979 11.2263H16.6418L15.1263 12.2927L14.4992 13.6514L14.1211 14.6269V18.4069L14.4644 19.0457L15.0346 19.2664H18.6931L19.458 18.6857V13.1346L18.9704 12.527Z" fill="#73D578"/>
<path id="Vector_3" d="M14.3896 18.3478V15.4451C14.3896 13.5583 15.5407 11.9037 17.1986 11.2259C16.6127 10.9876 15.9662 10.8697 15.2899 10.9047C12.8986 11.0286 11.0449 13.0504 11.0449 15.445V18.3477C11.0449 18.8548 11.456 19.2659 11.9631 19.2659H15.3077C14.8006 19.266 14.3896 18.8549 14.3896 18.3478Z" fill="#00C63A"/>
<path id="Vector_4" d="M32.5794 18.3477V15.3785C32.5794 13.5574 33.6809 11.9813 35.2504 11.2827C34.6294 11.0064 33.9351 10.867 33.2067 10.9048C31.9157 10.9716 30.7821 11.5924 30.0116 12.5256L29.5078 13.1574V18.5459L30.2727 19.266H33.4976C32.9905 19.266 32.5794 18.8549 32.5794 18.3477Z" fill="#FF3C98"/>
<path id="Vector_5" d="M26.1597 8.69971L25.0024 8.9303L23.5508 9.4645L21.5215 11.7291V18.1288L22.0367 19.2661H30.2738V14.2411C30.2738 11.6385 28.5337 9.42312 26.1597 8.69971Z" fill="#00C2FB"/>
<path id="Vector_6" d="M26.1589 8.6999C25.6037 8.53071 25.0141 8.44281 24.4038 8.45096C21.2239 8.49366 18.6914 11.137 18.6914 14.3173V19.2662H22.036V14.3173C22.036 11.69 23.765 9.43079 26.1589 8.6999Z" fill="#00ABF2"/>
<path id="Vector_7" d="M16.8127 5.16382H16.2203L14.9667 6.11981C14.9667 6.11981 14.7029 7.6295 14.6606 7.6992C14.6183 7.7689 14.4938 9.25534 14.6606 9.32504C14.8274 9.39474 16.07 10.5212 16.07 10.5212L16.8128 10.6086C17.8305 10.125 18.5342 9.08792 18.5342 7.88622C18.5342 6.68452 17.8304 5.64746 16.8127 5.16382Z" fill="#FFCEBE"/>
<path id="Vector_8" d="M15.0946 7.8864C15.0946 6.6847 15.7983 5.64757 16.816 5.164C16.4246 4.97794 15.9868 4.87354 15.5246 4.87354C13.8607 4.87354 12.5117 6.22241 12.5117 7.8864C12.5117 9.55039 13.8606 10.8993 15.5246 10.8993C15.9868 10.8993 16.4246 10.7949 16.816 10.6088C15.7982 10.1252 15.0946 9.08817 15.0946 7.8864Z" fill="#FFB1A0"/>
<path id="Vector_9" d="M34.7333 5.16382H34.1875L33.3049 6.10821C33.3049 6.10821 32.852 7.46692 32.8287 7.54821C32.8054 7.6295 32.8287 8.29143 32.8287 8.29143L33.1423 9.63855L33.9087 10.3353L34.7333 10.6085C35.751 10.1249 36.4547 9.08784 36.4547 7.88615C36.4547 6.68445 35.751 5.64746 34.7333 5.16382Z" fill="#FFCEBE"/>
<path id="Vector_10" d="M33.0106 7.8864C33.0106 6.6847 33.7143 5.64757 34.732 5.164C34.3406 4.97794 33.9028 4.87354 33.4406 4.87354C31.7766 4.87354 30.4277 6.22241 30.4277 7.8864C30.4277 9.55039 31.7766 10.8993 33.4406 10.8993C33.9028 10.8993 34.3406 10.7949 34.732 10.6088C33.7143 10.1252 33.0106 9.08817 33.0106 7.8864Z" fill="#FFB1A0"/>
<path id="Vector_11" d="M26.1302 1.02808H25.6799L24.0424 2.24115L23.5547 3.7741V5.55093L24.6637 7.33356L25.2966 7.87935L25.7031 8.03614L26.1301 8.08463C27.4564 7.46364 28.3755 6.11763 28.3755 4.55635C28.3755 2.99508 27.4565 1.64906 26.1302 1.02808Z" fill="#FFCEBE"/>
<path id="Vector_12" d="M23.8861 4.5564C23.8861 2.99512 24.8052 1.64918 26.1315 1.02812C25.6306 0.793635 25.0721 0.661865 24.4824 0.661865C22.3316 0.661865 20.5879 2.40546 20.5879 4.5564C20.5879 6.70733 22.3316 8.45093 24.4824 8.45093C25.072 8.45093 25.6306 8.31916 26.1315 8.08468C24.8052 7.46361 23.8861 6.11767 23.8861 4.5564Z" fill="#FFB1A0"/>
<path id="Vector_13" d="M37.7093 27.165C36.7345 25.1293 34.4907 26.0916 34.3023 26.1621L24.8855 28.948C24.8388 28.9618 24.7948 28.9203 24.8065 28.873C24.9087 28.4585 25.1479 26.9523 23.4537 26.2762C17.9807 24.0913 17.328 23.7218 15.9429 23.6999L15.9427 23.6997C12.9296 23.7098 11.6527 23.7301 10.419 24.0731L9.13965 24.9743L8.08593 26.8386L7.83398 31.6004L10.419 34.1198L11.2662 34.4916C12.9513 34.1037 14.6478 34.1432 16.0502 34.7028L19.5821 36.1128C20.3542 36.3789 22.1277 36.7932 23.9681 35.8499C23.969 35.8495 23.9696 35.8492 23.9696 35.8492C24.1412 35.7733 25.7027 35.0826 27.6607 34.2165L30.08 33.1463C33.0612 31.8276 36.0593 30.5015 36.2999 30.3951C36.6732 30.2036 38.5504 29.0774 37.7093 27.165Z" fill="#FFCEBE"/>
<path id="Vector_14" d="M24.8842 28.9481C24.8625 28.9545 24.8418 28.9487 24.8265 28.9363C24.6236 29.3749 24.1908 30.0134 23.4395 29.8295C22.1275 29.5081 18.8205 28.6869 17.4596 28.3488C17.1556 28.2729 16.8482 28.4583 16.7727 28.7622C16.6972 29.066 16.8823 29.3736 17.1862 29.449C18.5476 29.7873 21.8561 30.6089 23.1698 30.9306C23.3649 30.9785 23.5497 31.0004 23.7245 31.0004C25.0835 31.0004 25.8335 29.6743 26.0583 28.8736L26.1588 28.571L24.8842 28.9481Z" fill="#FFA68E"/>
<g id="Group_2">
<path id="Vector_15" d="M8.32022 28.942C8.32022 27.0243 9.12588 25.2948 10.417 24.0732C9.89757 24.2177 9.38575 24.4193 8.75522 24.7016C7.64186 25.1998 6.58462 25.8035 5.59408 26.4997C4.94602 26.9553 4.22701 27.3002 3.46325 27.5102L0.86403 28.2248C0.564834 28.3071 0.357422 28.5791 0.357422 28.8894V37.5364C0.357422 38.0189 0.840332 38.352 1.2914 38.1808L10.3275 34.7502C10.6381 34.649 10.951 34.5638 11.2643 34.4917C9.48759 33.2865 8.32022 31.2506 8.32022 28.942Z" fill="#FFB1A0"/>
</g>
<path id="Vector_16" d="M25.6446 15.6729H24.9942L23.3061 17.0779L22.8652 18.1864V20.2902L23.8226 22.1294L24.9627 22.8663L25.6446 22.8596C27.1615 22.3694 28.259 20.9463 28.259 19.2662C28.259 17.5862 27.1615 16.1631 25.6446 15.6729Z" fill="#FFE02F"/>
<path id="Vector_17" d="M23.0312 19.2662C23.0312 17.5861 24.1286 16.163 25.6455 15.6727C25.2793 15.5544 24.889 15.4897 24.4834 15.4897C22.3978 15.4897 20.707 17.1805 20.707 19.2662C20.707 21.3518 22.3978 23.0426 24.4834 23.0426C24.889 23.0426 25.2793 22.9779 25.6455 22.8596C24.1286 22.3693 23.0312 20.9462 23.0312 19.2662Z" fill="#FBC700"/>
<g id="Group_3">
<path id="Vector_18" d="M24.2969 20.9026C24.1519 20.9026 24.0067 20.8472 23.8961 20.7365L22.7129 19.5533C22.4915 19.3319 22.4915 18.973 22.7129 18.7516C22.9342 18.5303 23.2932 18.5303 23.5146 18.7516L24.297 19.534L25.6259 18.205C25.8473 17.9837 26.2062 17.9838 26.4276 18.2051C26.649 18.4265 26.6489 18.7855 26.4276 19.0068L24.6978 20.7365C24.587 20.8472 24.442 20.9026 24.2969 20.9026Z" fill="#00C2FB"/>
</g>
</g>
</g>
<defs>
<clipPath id="clip0_507_8894">
<rect width="37.5645" height="37.5645" fill="white" transform="translate(0.359375 0.662109)"/>
</clipPath>
</defs>
</svg>
