<svg width="38" height="38" viewBox="0 0 38 38" fill="none" xmlns="http://www.w3.org/2000/svg">
<g id="Team" clip-path="url(#clip0_507_8776)">
<path id="Vector" d="M27.623 16.7825V17.2077C27.623 17.7287 27.7071 18.2462 27.8718 18.7404L28.8348 21.6295H30.6524V14.9648H29.4407C28.4368 14.9649 27.623 15.7786 27.623 16.7825Z" fill="#5A4146"/>
<path id="Vector_2" d="M35.922 18.0412L34.8967 21.6296L30.0496 17.3885C29.3804 17.3885 28.8379 16.8459 28.8379 16.1768C28.8379 15.1729 29.6517 14.3591 30.6555 14.3591H34.8966C35.5659 14.3591 36.1084 14.9017 36.1084 15.5709V16.7097C36.1085 17.16 36.0457 17.6081 35.922 18.0412Z" fill="#694B4B"/>
<path id="Vector_3" d="M33.6821 23.4473H30.0469V26.1288H33.6821V23.4473Z" fill="#E6AF78"/>
<path id="Vector_4" d="M30.0488 24.5599C30.6108 24.7883 31.2235 24.9168 31.8665 24.9168C32.5094 24.9168 33.1222 24.7883 33.6841 24.5599V23.447H30.0488V24.5599Z" fill="#D29B6E"/>
<path id="Vector_5" d="M36.6059 25.7519L33.6829 24.9168L31.8654 26.1229L30.0478 24.9167L27.1249 25.7519C26.3446 25.9749 25.8066 26.6881 25.8066 27.4996V31.9293C25.8066 32.2639 26.0779 32.5352 26.4125 32.5352H37.3183C37.653 32.5352 37.9242 32.2639 37.9242 31.9293V27.4996C37.9242 26.688 37.3862 25.9749 36.6059 25.7519Z" fill="#D5DCED"/>
<path id="Vector_6" d="M32.4715 32.5352H31.2598L31.5627 26.1287H32.1686L32.4715 32.5352Z" fill="#AFB9D2"/>
<path id="Vector_7" d="M31.8657 24.053C29.858 24.053 28.2305 22.4254 28.2305 20.4178V19.7079C28.2305 19.3866 28.3581 19.0784 28.5854 18.8511L29.684 17.7524C29.9167 17.5197 30.2348 17.386 30.5637 17.3963C32.5004 17.4574 34.2147 17.8723 35.1519 18.7876C35.3813 19.0117 35.501 19.3251 35.501 19.6457V20.4178C35.501 22.4255 33.8734 24.053 31.8657 24.053Z" fill="#F0C087"/>
<path id="Vector_8" d="M30.0481 19.8583C30.0481 19.1593 30.635 18.6038 31.3326 18.6483C32.5557 18.7263 34.3707 18.9307 35.4842 19.4663C35.4478 19.2107 35.338 18.9694 35.1519 18.7876C34.2147 17.8723 32.5004 17.4574 30.5637 17.3963L30.5636 17.3964C30.2348 17.386 29.9166 17.5198 29.684 17.7524L28.5854 18.851C28.3581 19.0782 28.2305 19.3864 28.2305 19.7078V20.4177C28.2305 22.0755 29.3413 23.4713 30.8585 23.9085C30.3535 23.2854 30.0482 22.4945 30.0482 21.6294L30.0481 19.8583Z" fill="#E6AF78"/>
<path id="Vector_9" d="M35.5 29.3053C35.5 28.8232 35.6915 28.3609 36.0324 28.02L37.5919 26.4604C37.8004 26.7584 37.9235 27.1171 37.9235 27.5V31.9297C37.9235 32.2643 37.6523 32.5356 37.3176 32.5356H35.5V29.3053Z" fill="#C7CFE2"/>
<path id="Vector_10" d="M32.1686 27.3404H31.5627C31.3954 27.3404 31.2598 27.2048 31.2598 27.0375V26.1287H32.4715V27.0375C32.4715 27.2048 32.3359 27.3404 32.1686 27.3404Z" fill="#959CB5"/>
<g id="Group">
<path id="Vector_11" d="M31.8647 26.1234L30.8377 26.9078C30.6608 27.0429 30.4051 26.9888 30.2982 26.7935L29.377 25.1111L29.7478 24.5455C29.83 24.4201 30.0053 24.3987 30.1153 24.5007L31.8647 26.1234Z" fill="#C7CFE2"/>
<path id="Vector_12" d="M31.8652 26.1233L32.8922 26.9078C33.0691 27.0429 33.3248 26.9888 33.4317 26.7935L34.3529 25.1111L33.9821 24.5455C33.8999 24.4201 33.7246 24.3987 33.6146 24.5007L31.8652 26.1233Z" fill="#C7CFE2"/>
</g>
<path id="Vector_13" d="M11.2022 23.8001C10.6845 22.4283 10.2738 20.07 10.1851 18.8422C10.0164 16.5057 8.25563 14.6011 5.87541 14.6011C3.4952 14.6011 1.73444 16.5058 1.56569 18.8422C1.47699 20.0699 1.06635 22.4283 0.548587 23.8001C0.4345 24.1026 0.566196 24.436 0.863997 24.571C1.41881 24.8224 2.60172 25.315 4.02837 25.5069H7.72239C9.14235 25.3146 10.3336 24.8217 10.8868 24.571C11.1846 24.436 11.3163 24.1026 11.2022 23.8001Z" fill="#5A4146"/>
<path id="Vector_14" d="M10.8883 24.571C11.186 24.436 11.3178 24.1026 11.2036 23.8001C10.6859 22.4283 10.2752 20.07 10.1866 18.8422C10.0179 16.5057 8.25707 14.6011 5.87693 14.6011C5.87091 14.6011 5.86497 14.6011 5.85896 14.6011C4.0326 14.6086 3.38718 17.0993 4.95939 18.0287C5.05381 18.0845 5.11434 18.1114 5.11434 18.1114L6.49139 25.5069H7.7239C9.14387 25.3144 10.3351 24.8216 10.8883 24.571Z" fill="#694B4B"/>
<path id="Vector_15" d="M10.2604 26.7232L8.29972 25.7429C7.88915 25.5377 7.6298 25.118 7.62987 24.659L7.63002 22.8413H3.99462V24.6591C3.99462 25.1181 3.73534 25.5376 3.32477 25.7429L1.36408 26.7232C0.7483 27.0311 0.359375 27.6604 0.359375 28.3488V31.9294C0.359375 32.2639 0.630617 32.5352 0.96525 32.5352H10.6593C10.994 32.5352 11.2652 32.2639 11.2652 31.9294V28.3489C11.2652 27.6604 10.8762 27.0311 10.2604 26.7232Z" fill="#E6AF78"/>
<path id="Vector_16" d="M5.81331 25.2646C6.4657 25.2646 7.09058 25.1301 7.66344 24.8907C7.6484 24.8143 7.63086 24.7384 7.63086 24.6588L7.63101 22.8411H3.99561V24.6588C3.99561 24.7389 3.97808 24.8152 3.96289 24.8919C4.53612 25.13 5.1607 25.2646 5.81331 25.2646Z" fill="#D29B6E"/>
<path id="Vector_17" d="M10.2604 26.7234L8.86363 26.025C8.21594 27.0251 7.0926 27.6885 5.81232 27.6885C4.53205 27.6885 3.40863 27.0251 2.76094 26.0249L1.36415 26.7234C0.748373 27.0312 0.359375 27.6606 0.359375 28.349V31.9295C0.359375 32.2641 0.630617 32.5354 0.96525 32.5354H10.6593C10.994 32.5354 11.2652 32.2641 11.2652 31.9295V28.3491C11.2652 27.6606 10.8762 27.0312 10.2604 26.7234Z" fill="#D5DCED"/>
<path id="Vector_18" d="M5.81165 24.0529C3.96335 24.0529 2.43729 22.6736 2.20655 20.8882C2.1731 20.6295 2.29745 20.3758 2.53033 20.2584C2.80927 20.1177 3.21463 19.8804 3.60275 19.5341C4.03496 19.1485 4.28852 18.7418 4.43174 18.4432C4.55507 18.1862 4.83856 18.0407 5.11487 18.1113C7.24812 18.6554 8.70045 19.7652 9.22738 20.2183C9.36883 20.34 9.45034 20.5193 9.43582 20.7054C9.28901 22.5785 7.72252 24.0529 5.81165 24.0529Z" fill="#F0C087"/>
<path id="Vector_19" d="M9.22728 20.2183C8.70043 19.7652 7.24803 18.6554 5.11478 18.1113C4.83847 18.0407 4.55498 18.1862 4.43164 18.4432C4.32321 18.6694 4.14397 18.9574 3.87801 19.2515C3.87793 19.2522 3.87771 19.2528 3.87764 19.2535C3.7951 19.3471 3.70721 19.4408 3.60273 19.5342C3.21461 19.8805 2.80925 20.1177 2.53031 20.2585C2.29744 20.3759 2.17315 20.6296 2.20653 20.8883C2.4138 22.4918 3.66854 23.7681 5.26048 24.0115C4.53509 23.5181 3.994 22.8394 3.994 21.6296V20.7656C4.13164 20.664 4.27023 20.5626 4.40949 20.4383C4.74625 20.1378 5.04023 19.7903 5.27597 19.4161C6.9079 19.9254 8.01429 20.7736 8.43373 21.1342C8.54855 21.2349 8.83352 21.4976 9.1669 21.8103C9.31034 21.4651 9.4052 21.0948 9.43565 20.7056C9.45025 20.5194 9.36874 20.34 9.22728 20.2183Z" fill="#E6AF78"/>
<path id="Vector_20" d="M0.728711 27.2568C0.495326 27.5666 0.359375 27.9466 0.359375 28.349V31.9295C0.359375 32.2641 0.630617 32.5354 0.96525 32.5354H2.78287V29.4825C2.78287 29.1144 2.61552 28.7662 2.32806 28.5363L0.728711 27.2568Z" fill="#C7CFE2"/>
<path id="Vector_21" d="M27.8444 25.8964L22.775 24.053L19.1398 25.2648L15.5045 24.0531L10.4352 25.8965C9.47741 26.2448 8.83984 27.155 8.83984 28.1741V31.9295C8.83984 32.2641 9.11109 32.5354 9.44572 32.5354H28.8339C29.1685 32.5354 29.4397 32.2641 29.4397 31.9295V28.1741C29.4397 27.1549 28.8022 26.2447 27.8444 25.8964Z" fill="#FF507D"/>
<path id="Vector_22" d="M18.5067 26.4768L17.9297 32.5355H20.3532L19.7761 26.4768H18.5067Z" fill="#707487"/>
<path id="Vector_23" d="M19.7803 27.3091H18.5081C18.2739 27.3091 18.084 27.1192 18.084 26.8849V25.2649H20.2044V26.8849C20.2045 27.1191 20.0146 27.3091 19.7803 27.3091Z" fill="#5B5D6E"/>
<path id="Vector_24" d="M28.7897 26.5229C29.1988 26.9621 29.4419 27.5469 29.4419 28.1742V31.9296C29.4419 32.2642 29.1706 32.5355 28.836 32.5355H25.8066V30.5099C25.8066 29.8671 26.062 29.2507 26.5165 28.7963L28.7897 26.5229Z" fill="#D23C69"/>
<path id="Vector_25" d="M25.804 11.5581V6.4825C25.804 5.81324 25.2614 5.27075 24.5923 5.27075H17.3217C14.6448 5.27075 12.4746 7.44084 12.4746 10.1178V11.5581C12.4746 12.2093 12.5796 12.8563 12.7855 13.4741L12.9872 14.0791C13.049 14.2644 13.0805 14.4585 13.0805 14.6539V14.9648H25.1981V14.6539C25.1981 14.4585 25.2295 14.2644 25.2913 14.0791L25.493 13.4741C25.699 12.8562 25.804 12.2093 25.804 11.5581Z" fill="#5A4146"/>
<path id="Vector_26" d="M15.5059 7.73211C15.5059 9.09148 16.6079 10.1935 17.9672 10.1935H18.308L18.4725 14.9647H25.1999V14.6538C25.1999 14.4584 25.2313 14.2644 25.2931 14.079L25.4948 13.474C25.7007 12.8562 25.8057 12.2093 25.8057 11.558V6.4825C25.8057 5.81324 25.2632 5.27075 24.594 5.27075H17.9672C16.6079 5.27075 15.5059 6.37274 15.5059 7.73211Z" fill="#694B4B"/>
<path id="Vector_27" d="M22.7767 19.8123H15.5059V25.265H22.7767V19.8123Z" fill="#E6AF78"/>
<path id="Vector_28" d="M15.5059 21.8605C16.5762 22.4805 17.8153 22.8411 19.1412 22.8411C20.467 22.8411 21.7062 22.4805 22.7764 21.8605V19.8118H15.5059L15.5059 21.8605Z" fill="#D29B6E"/>
<g id="Group_2">
<path id="Vector_29" d="M19.1419 25.2645L17.2095 27.1969C16.9498 27.4566 16.5205 27.4273 16.2985 27.1347L14.2949 24.4947L14.819 23.3902C14.9737 23.0643 15.377 22.9449 15.6841 23.1342L19.1419 25.2645Z" fill="#D23C69"/>
<path id="Vector_30" d="M19.1406 25.2645L21.073 27.1969C21.3327 27.4566 21.762 27.4273 21.984 27.1347L23.9876 24.4947L23.4636 23.3902C23.3089 23.0643 22.9055 22.9449 22.5984 23.1342L19.1406 25.2645Z" fill="#D23C69"/>
</g>
<path id="Vector_31" d="M19.1409 21.6293C15.7947 21.6293 13.082 18.9166 13.082 15.5704V14.8606C13.082 14.5392 13.2097 14.231 13.4369 14.0037L13.9388 13.5018C14.166 13.2746 14.2937 12.9664 14.2937 12.645V11.1926C14.2937 10.912 14.4821 10.6683 14.7551 10.6038C16.1881 10.2653 20.6472 9.46363 23.6818 11.6955C23.8788 11.8404 23.9878 12.0785 23.9878 12.3231V12.645C23.9878 12.9663 24.1154 13.2745 24.3427 13.5018L24.8446 14.0037C25.0718 14.231 25.1995 14.5392 25.1995 14.8606V15.5704C25.1997 18.9166 22.487 21.6293 19.1409 21.6293Z" fill="#F0C087"/>
<path id="Vector_32" d="M23.6818 11.6955C21.5476 10.1257 18.7125 10.0578 16.7174 10.2727C15.8757 10.3633 15.1804 10.5034 14.7553 10.6037C14.4823 10.6682 14.2939 10.912 14.2939 11.1925V12.6448C14.2939 12.9663 14.1662 13.2745 13.9389 13.5018L13.437 14.0037C13.2097 14.231 13.082 14.5392 13.082 14.8606V15.5704C13.082 18.6683 15.4085 21.2186 18.4087 21.5807C17.3633 20.492 16.7173 19.0166 16.7173 17.388V12.9594C16.7173 12.3454 17.1739 11.8323 17.783 11.7559C19.237 11.5736 21.9002 11.464 23.9878 12.645V12.323C23.9879 12.0784 23.8788 11.8403 23.6818 11.6955Z" fill="#E6AF78"/>
<path id="Vector_33" d="M9.49201 26.5229C9.08291 26.9621 8.83984 27.5469 8.83984 28.1742V31.9296C8.83984 32.2642 9.11109 32.5355 9.44572 32.5355H12.4751V30.5099C12.4751 29.8671 12.2198 29.2507 11.7653 28.7963L9.49201 26.5229Z" fill="#D23C69"/>
</g>
<defs>
<clipPath id="clip0_507_8776">
<rect width="37.5645" height="37.5645" fill="white" transform="translate(0.359375 0.12085)"/>
</clipPath>
</defs>
</svg>
