<svg width="24" height="24" viewBox="0 0 24 24" fill="none" xmlns="http://www.w3.org/2000/svg">
<g id="Icon" clip-path="url(#clip0_551_10445)">
<path id="Vector" d="M23.8874 4.72895C23.0223 5.10845 22.1004 5.36 21.1393 5.48214C22.1281 4.8918 22.8827 3.96414 23.2375 2.84599C22.3156 3.39561 21.2978 3.78384 20.2131 4.00049C19.3378 3.06846 18.0902 2.49121 16.7293 2.49121C14.0888 2.49121 11.963 4.63444 11.963 7.26186C11.963 7.63991 11.995 8.00342 12.0735 8.34947C8.10836 8.15609 4.5998 6.25568 2.24283 3.36072C1.83134 4.07464 1.58997 4.8918 1.58997 5.77149C1.58997 7.42326 2.44058 8.88746 3.70849 9.73516C2.94221 9.72062 2.19048 9.49815 1.55362 9.14773C1.55362 9.16227 1.55362 9.18117 1.55362 9.20008C1.55362 11.5178 3.20685 13.4429 5.3748 13.8864C4.98657 13.9925 4.56345 14.0434 4.12434 14.0434C3.81899 14.0434 3.51074 14.026 3.22139 13.962C3.83935 15.8508 5.5929 17.2394 7.67797 17.2844C6.05528 18.5538 3.99493 19.3186 1.76446 19.3186C1.37332 19.3186 0.998185 19.3012 0.623047 19.2532C2.73574 20.6156 5.23957 21.3935 7.9397 21.3935C16.7162 21.3935 21.5145 14.1234 21.5145 7.82166C21.5145 7.61083 21.5072 7.40727 21.497 7.20516C22.4436 6.5334 23.2389 5.69443 23.8874 4.72895Z" fill="#1C1C1E"/>
</g>
<defs>
<clipPath id="clip0_551_10445">
<rect width="23.2644" height="23.2644" fill="white" transform="translate(0.623047 0.3125)"/>
</clipPath>
</defs>
</svg>
